<svg width="252" height="100" viewBox="0 0 252 100" fill="none" xmlns="http://www.w3.org/2000/svg">
<path d="M39.7902 13.2597H24.2297C10.9914 13.2597 0.259644 23.9914 0.259644 37.2297V52.7903C0.259644 66.0285 10.9914 76.7603 24.2297 76.7603H39.7902C53.0285 76.7603 63.7603 66.0285 63.7603 52.7903V37.2297C63.7603 23.9914 53.0285 13.2597 39.7902 13.2597Z" fill="white" stroke="white" stroke-width="0.25" stroke-miterlimit="10"/>
<path d="M40.0915 49.2759C39.6833 49.2759 39.2009 49.9704 39.2009 50.8786C39.2009 51.7867 39.6833 52.4991 40.0915 52.4991C40.4997 52.4991 40.9821 51.8758 40.9821 50.8786C40.9821 49.8813 40.4626 49.2759 40.0915 49.2759Z" fill="#EDA870" stroke="black" stroke-miterlimit="10"/>
<path d="M21.9641 49.2759C21.593 49.2759 21.0735 49.8991 21.0735 50.8786C21.0735 51.858 21.593 52.4991 21.9641 52.4991C22.3352 52.4991 22.8547 51.8758 22.8547 50.8786C22.8547 49.8813 22.2795 49.2759 21.9641 49.2759Z" fill="#EDA870" stroke="black" stroke-miterlimit="10"/>
<path d="M49.7134 52.5397C49.7134 52.0767 49.7134 51.395 49.7134 50.932C49.7134 47.3704 49.1482 36.9307 44.0459 30.698C43.5078 30.0925 43.6922 29.9662 43.117 29.3607C42.7277 29.0114 41.6976 27.8686 41.2593 27.5777C38.021 24.8306 34.2191 22.6315 30.1129 21.3372C23.4677 25.046 17.7753 27.9124 14.7866 34.7097C13.3933 39.1672 12 41.8417 12 47.1907C12 49.2266 12 49.632 12 50.932C12 59.9427 20.721 67.511 30.8516 67.511C40.2399 67.511 48.5244 61.5159 49.619 53.4312C49.8788 53.1997 49.6949 52.7356 49.7134 52.5397ZM21.9641 54.3333C21.1325 54.2266 20.378 53.8099 19.864 53.1734C19.3501 52.5368 19.1181 51.7316 19.2181 50.932C19.1183 50.1344 19.3509 49.3313 19.8652 48.6976C20.3796 48.0638 21.134 47.6508 21.9641 47.5485C22.7943 47.6508 23.5487 48.0638 24.063 48.6976C24.5774 49.3313 24.81 50.1344 24.7101 50.932C24.7947 51.723 24.5555 52.5145 24.043 53.1393C23.5306 53.764 22.7851 54.173 21.9641 54.2798V54.3333ZM34.4511 55.4017C34.0434 55.9196 33.524 56.3469 32.9284 56.6542C32.3327 56.9616 31.6749 57.1418 31 57.1825H30.7773C29.5619 57.1622 28.4005 56.6972 27.5304 55.8825C27.4451 55.7983 27.3779 55.6989 27.3327 55.5898C27.2875 55.4807 27.2651 55.3641 27.2668 55.2467C27.2685 55.1293 27.2943 55.0133 27.3427 54.9055C27.3912 54.7977 27.4612 54.7 27.5489 54.6182C27.6366 54.5363 27.7403 54.4719 27.854 54.4285C27.9676 54.3851 28.0891 54.3636 28.2114 54.3652C28.3338 54.3669 28.4546 54.3916 28.5669 54.4381C28.6793 54.4846 28.781 54.5518 28.8663 54.636C29.1335 54.8913 29.4526 55.091 29.8037 55.2227C30.1548 55.3545 30.5305 55.4154 30.9072 55.4017C31.3058 55.3764 31.6941 55.2695 32.0461 55.0883C32.3981 54.9071 32.7057 54.6557 32.9482 54.3511C33.0933 54.1598 33.3117 54.0317 33.5553 53.995C33.7989 53.9582 34.0477 54.0159 34.247 54.1552C34.4463 54.2945 34.5797 54.5041 34.618 54.7379C34.6563 54.9716 34.5962 55.2104 34.4511 55.4017ZM40.0173 54.3333C39.1856 54.2266 38.4311 53.8099 37.9172 53.1734C37.4033 52.5368 37.1712 51.7316 37.2713 50.932C37.1715 50.1344 37.4041 49.3313 37.9184 48.6976C38.4327 48.0638 39.1871 47.6508 40.0173 47.5485C40.8475 47.6508 41.6019 48.0638 42.1162 48.6976C42.6305 49.3313 42.8631 50.1344 42.7633 50.932C42.8495 51.7123 42.6204 52.4946 42.1233 53.1175C41.6262 53.7404 40.8989 54.1565 40.0915 54.2798L40.0173 54.3333Z" fill="#FF4848"/>
<path d="M45.3238 29.6696C45.3238 29.6696 45.3238 29.6696 45.231 29.6696C44.6859 29.0386 44.097 28.4437 43.4684 27.8888C40.0614 24.3871 35.8308 21.7188 31.1299 20.1068L30.7403 20L29.4044 20.2493C26.7775 21.7135 24.3314 23.4579 22.1126 25.4492C15.4331 30.4531 13.6519 37.0598 12.8355 46.6581C12.7189 47.8418 12.6693 49.0308 12.6871 50.2197C12.6871 50.3621 12.6871 50.5046 12.6871 50.647C12.6871 60.6194 19.9232 69.2917 31.0742 69.2917C35.8348 69.4139 40.4821 67.8866 44.1653 64.9892C47.8485 62.0918 50.3214 58.0182 51.1312 53.5141C51.1237 53.455 51.1237 53.3951 51.1312 53.336V52.7305C52.3929 43.2569 50.4076 35.4571 45.3238 29.6696ZM31.0928 67.4219C20.9623 67.4219 12.7057 60.1029 12.7057 51.0922C12.7057 49.7923 12.7057 48.5635 12.8727 47.3348C13.1646 44.1666 13.9463 41.0578 15.1919 38.1104C18.1806 31.3131 23.39 25.632 30.0352 21.9232C34.1414 23.2175 37.9294 25.3019 41.1677 28.0491C41.6061 28.3399 42.0216 28.6613 42.4108 29.0107C42.986 29.5449 43.5241 30.1148 44.0621 30.7915C49.2016 37.0242 49.6284 47.5841 49.6284 51.0744C49.6284 51.5374 49.6284 52.0004 49.6284 52.4634C49.6284 52.6593 49.6284 52.8196 49.6284 52.9621C48.2554 61.0646 40.4812 67.4219 31.0928 67.4219Z" fill="#FF4848"/>
<path d="M21.9641 47.4951C21.134 47.5974 20.3795 48.0104 19.8652 48.6441C19.3509 49.2779 19.1183 50.081 19.2181 50.8786C19.118 51.6781 19.3501 52.4833 19.864 53.1199C20.378 53.7565 21.1324 54.1732 21.9641 54.2798C22.7958 54.1732 23.5503 53.7565 24.0642 53.1199C24.5781 52.4833 24.8102 51.6781 24.7101 50.8786C24.8099 50.081 24.5773 49.2779 24.063 48.6441C23.5487 48.0104 22.7943 47.5974 21.9641 47.4951ZM21.9641 52.4991C21.593 52.4991 21.0735 51.8758 21.0735 50.8786C21.0735 49.8813 21.593 49.2759 21.9641 49.2759C22.3352 49.2759 22.8547 49.8991 22.8547 50.8786C22.8547 51.858 22.2795 52.4991 21.9641 52.4991Z" fill="black" stroke="black" stroke-miterlimit="10"/>
<path d="M40.0916 47.4951C39.2614 47.5974 38.507 48.0104 37.9927 48.6441C37.4783 49.2779 37.2457 50.081 37.3455 50.8786C37.2455 51.6781 37.4775 52.4833 37.9915 53.1199C38.5054 53.7565 39.2599 54.1732 40.0916 54.2798C40.9232 54.1732 41.6777 53.7565 42.1917 53.1199C42.7056 52.4833 42.9376 51.6781 42.8376 50.8786C42.9374 50.081 42.7048 49.2779 42.1905 48.6441C41.6761 48.0104 40.9217 47.5974 40.0916 47.4951ZM40.0916 52.4991C39.6834 52.4991 39.201 51.7867 39.201 50.8786C39.201 49.9704 39.6834 49.2759 40.0916 49.2759C40.4997 49.2759 40.9822 49.8991 40.9822 50.8786C40.9822 51.858 40.4626 52.4991 40.0916 52.4991Z" fill="black" stroke="black" stroke-miterlimit="10"/>
<path d="M32.9482 54.2976C32.7057 54.6023 32.3981 54.8536 32.0461 55.0348C31.6941 55.2161 31.3058 55.3229 30.9072 55.3483C30.5305 55.362 30.1548 55.301 29.8037 55.1693C29.4526 55.0376 29.1335 54.8378 28.8663 54.5826C28.694 54.4125 28.4585 54.3151 28.2114 54.3118C27.9644 54.3085 27.7261 54.3995 27.5489 54.5648C27.3718 54.7301 27.2703 54.9561 27.2668 55.1932C27.2633 55.4304 27.3581 55.6591 27.5304 55.8291C28.4005 56.6438 29.5619 57.1088 30.7773 57.1291H31C31.6749 57.0884 32.3327 56.9081 32.9284 56.6008C33.524 56.2934 34.0434 55.8662 34.4511 55.3483C34.5962 55.157 34.6563 54.9182 34.618 54.6845C34.5797 54.4507 34.4463 54.2411 34.247 54.1018C34.0477 53.9624 33.7989 53.9048 33.5553 53.9415C33.3117 53.9783 33.0933 54.1064 32.9482 54.2976Z" fill="black"/>
<path d="M40.8336 48.3855C41.1936 48.4934 41.5238 48.6774 41.7999 48.9239C42.0761 49.1705 42.2911 49.4733 42.4293 49.8101C42.6505 50.3479 42.6505 50.9462 42.4293 51.484" stroke="white" stroke-miterlimit="10" stroke-linecap="round"/>
<path d="M21.9641 47.9047C22.3608 47.9909 22.7328 48.1601 23.0535 48.4002C23.3742 48.6403 23.6358 48.9454 23.8195 49.2937C23.9874 49.6242 24.0838 49.9839 24.1029 50.3512C24.122 50.7184 24.0635 51.0856 23.9308 51.4306" stroke="white" stroke-miterlimit="10" stroke-linecap="round"/>
<path d="M37.1228 28.5477C39.3424 29.7289 41.2496 31.3837 42.6972 33.3845C44.1448 35.3852 45.0942 37.6784 45.4722 40.0871" stroke="white" stroke-miterlimit="10" stroke-linecap="round"/>
<path d="M46.7153 44.4678L47.0122 45.6253" stroke="white" stroke-miterlimit="10" stroke-linecap="round"/>
<g style="mix-blend-mode:darken" opacity="0.07">
<path d="M30.1836 20.4808C31.1299 21.3712 21.5003 28.6367 17.5297 41.4939C16.1567 45.928 14.7466 50.5402 16.5278 55.1524C19.3109 62.2755 28.7549 66.7452 40.3142 67.2082C36.0754 69.2084 31.2208 69.6516 26.6651 68.4543C22.1095 67.2571 18.1673 64.5021 15.5815 60.7084C12.8355 56.5948 12 52.1056 12 47.1907C12 44.5017 12.8355 36.1338 18.5687 29.1353C20.2016 27.2059 22.0704 25.472 24.135 23.9711C25.0627 23.2054 29.5342 19.8575 30.1836 20.4808Z" fill="#53C3EA"/>
<path d="M30.1836 20.4808C31.1299 21.3712 21.5003 28.6367 17.5297 41.4939C16.1567 45.928 14.7466 50.5402 16.5278 55.1524C19.3109 62.2755 28.7549 66.7452 40.3142 67.2082C36.0754 69.2084 31.2208 69.6516 26.6651 68.4543C22.1095 67.2571 18.1673 64.5021 15.5815 60.7084C12.8355 56.5948 12 52.1056 12 47.1907C12 44.5017 12.8355 36.1338 18.5687 29.1353C20.2016 27.2059 22.0704 25.472 24.135 23.9711C25.0627 23.2054 29.5342 19.8575 30.1836 20.4808Z" stroke="#53C3EA" stroke-width="0.25" stroke-miterlimit="10"/>
</g>
<path d="M102.594 29.112C102.85 28.632 103.282 28.296 103.89 28.104C104.498 27.912 105.266 27.816 106.194 27.816C107.122 27.816 107.858 27.896 108.402 28.056C108.946 28.216 109.362 28.408 109.65 28.632C109.938 28.856 110.162 29.176 110.322 29.592C110.482 30.136 110.562 30.968 110.562 32.088V58.728C110.562 59.464 110.53 60.024 110.466 60.408C110.434 60.76 110.29 61.176 110.034 61.656C109.586 62.52 108.338 62.952 106.29 62.952C104.05 62.952 102.738 62.36 102.354 61.176C102.162 60.632 102.066 59.8 102.066 58.68V48.936H89.3457V58.728C89.3457 59.464 89.3137 60.024 89.2497 60.408C89.2177 60.76 89.0737 61.176 88.8177 61.656C88.3697 62.52 87.1217 62.952 85.0737 62.952C82.8337 62.952 81.5217 62.36 81.1377 61.176C80.9457 60.632 80.8497 59.8 80.8497 58.68V32.04C80.8497 31.304 80.8657 30.76 80.8977 30.408C80.9617 30.024 81.1217 29.592 81.3777 29.112C81.8257 28.248 83.0737 27.816 85.1217 27.816C87.3617 27.816 88.6897 28.408 89.1057 29.592C89.2657 30.136 89.3457 30.968 89.3457 32.088V41.88H102.066V32.04C102.066 31.304 102.082 30.76 102.114 30.408C102.178 30.024 102.338 29.592 102.594 29.112Z" fill="white"/>
<path d="M138.796 47.352C138.796 49.304 138.3 50.76 137.308 51.72C136.348 52.648 135.276 53.112 134.092 53.112H122.716C122.716 54.008 123.244 54.76 124.3 55.368C125.356 55.976 126.412 56.28 127.468 56.28C129.324 56.28 130.78 56.088 131.836 55.704L132.364 55.512C133.132 55.16 133.772 54.984 134.284 54.984C135.308 54.984 136.188 55.704 136.924 57.144C137.34 58.008 137.548 58.744 137.548 59.352C137.548 62.2 134.14 63.624 127.324 63.624C124.956 63.624 122.844 63.224 120.988 62.424C119.164 61.592 117.74 60.504 116.716 59.16C114.7 56.568 113.692 53.672 113.692 50.472C113.692 46.44 114.988 43.224 117.58 40.824C120.204 38.392 123.468 37.176 127.372 37.176C131.82 37.176 135.084 38.744 137.164 41.88C138.252 43.544 138.796 45.368 138.796 47.352ZM128.668 48.744C129.884 48.744 130.492 48.232 130.492 47.208C130.492 46.472 130.204 45.88 129.628 45.432C129.084 44.984 128.284 44.76 127.228 44.76C126.204 44.76 125.18 45.192 124.156 46.056C123.132 46.888 122.62 47.784 122.62 48.744H128.668Z" fill="white"/>
<path d="M141.928 30.024C141.928 29.288 141.944 28.744 141.976 28.392C142.04 28.008 142.184 27.576 142.408 27.096C142.856 26.232 144.104 25.8 146.152 25.8C148.104 25.8 149.32 26.232 149.8 27.096C150.056 27.576 150.2 28.008 150.232 28.392C150.296 28.776 150.328 29.336 150.328 30.072V52.296C150.328 53.448 150.424 54.184 150.616 54.504C150.808 54.792 151.224 54.936 151.864 54.936C152.536 54.936 152.984 54.968 153.208 55.032C153.432 55.064 153.704 55.192 154.024 55.416C154.664 55.832 154.984 56.968 154.984 58.824C154.984 60.84 154.664 62.072 154.024 62.52C153.192 63.096 151.208 63.192 148.072 62.808C145.608 62.488 144.008 61.672 143.272 60.36C142.376 58.792 141.928 56.296 141.928 52.872V30.024Z" fill="white"/>
<path d="M157.631 69.864V41.832C157.631 41.096 157.647 40.552 157.679 40.2C157.743 39.848 157.887 39.448 158.111 39C158.559 38.136 159.631 37.704 161.327 37.704C163.023 37.704 164.159 37.928 164.735 38.376C165.343 38.792 165.695 39.416 165.791 40.248C167.007 38.584 168.911 37.752 171.503 37.752C174.127 37.752 176.607 38.984 178.943 41.448C181.279 43.912 182.447 46.776 182.447 50.04C182.447 53.304 181.279 56.168 178.943 58.632C176.639 61.096 174.175 62.328 171.551 62.328C168.927 62.328 167.023 61.592 165.839 60.12V69.816C165.839 70.552 165.807 71.096 165.743 71.448C165.711 71.8 165.567 72.2 165.311 72.648C165.087 73.128 164.687 73.464 164.111 73.656C163.535 73.848 162.751 73.944 161.759 73.944C160.767 73.944 159.967 73.848 159.359 73.656C158.783 73.464 158.367 73.144 158.111 72.696C157.887 72.248 157.743 71.848 157.679 71.496C157.647 71.144 157.631 70.6 157.631 69.864ZM167.135 47.256C166.399 48.12 166.031 49.064 166.031 50.088C166.031 51.112 166.399 52.056 167.135 52.92C167.903 53.752 168.863 54.168 170.015 54.168C171.199 54.168 172.191 53.752 172.991 52.92C173.823 52.088 174.239 51.144 174.239 50.088C174.239 49.032 173.855 48.088 173.087 47.256C172.319 46.392 171.311 45.96 170.063 45.96C168.847 45.96 167.871 46.392 167.135 47.256Z" fill="white"/>
<path d="M185.568 41.928C185.568 41.192 185.584 40.648 185.616 40.296C185.68 39.912 185.824 39.48 186.048 39C186.496 38.168 187.744 37.752 189.792 37.752C191.328 37.752 192.416 38.024 193.056 38.568C193.6 39.016 193.888 39.704 193.92 40.632C193.952 40.952 193.968 41.416 193.968 42.024V58.824C193.968 59.56 193.936 60.12 193.872 60.504C193.84 60.856 193.696 61.272 193.44 61.752C193.024 62.584 191.792 63 189.744 63C187.728 63 186.496 62.568 186.048 61.704C185.824 61.224 185.68 60.808 185.616 60.456C185.584 60.104 185.568 59.544 185.568 58.776V41.928ZM193.44 33.048C193.216 33.496 192.8 33.816 192.192 34.008C191.584 34.2 190.768 34.296 189.744 34.296C188.752 34.296 187.952 34.2 187.344 34.008C186.736 33.816 186.304 33.48 186.048 33C185.824 32.52 185.68 32.104 185.616 31.752C185.584 31.368 185.568 30.808 185.568 30.072C185.568 29.336 185.584 28.792 185.616 28.44C185.68 28.056 185.824 27.64 186.048 27.192C186.496 26.328 187.744 25.896 189.792 25.896C191.808 25.896 193.024 26.328 193.44 27.192C193.696 27.672 193.84 28.104 193.872 28.488C193.936 28.84 193.968 29.384 193.968 30.12C193.968 30.856 193.936 31.416 193.872 31.8C193.84 32.152 193.696 32.568 193.44 33.048Z" fill="white"/>
<path d="M211.867 37.704C215.067 37.704 217.723 38.936 219.835 41.4C221.979 43.832 223.051 46.808 223.051 50.328V58.776C223.051 59.512 223.019 60.072 222.955 60.456C222.923 60.808 222.795 61.208 222.571 61.656C222.123 62.52 220.875 62.952 218.827 62.952C216.555 62.952 215.243 62.36 214.891 61.176C214.699 60.632 214.603 59.816 214.603 58.728V50.28C214.603 48.968 214.219 47.944 213.451 47.208C212.715 46.472 211.707 46.104 210.427 46.104C209.179 46.104 208.155 46.488 207.355 47.256C206.587 48.024 206.203 49.032 206.203 50.28V58.776C206.203 59.512 206.171 60.072 206.107 60.456C206.075 60.808 205.931 61.208 205.675 61.656C205.259 62.52 204.027 62.952 201.979 62.952C199.963 62.952 198.731 62.52 198.283 61.656C198.059 61.176 197.915 60.76 197.851 60.408C197.819 60.024 197.803 59.464 197.803 58.728V41.736C197.803 41.032 197.819 40.504 197.851 40.152C197.915 39.768 198.075 39.352 198.331 38.904C198.779 38.104 200.011 37.704 202.027 37.704C203.979 37.704 205.179 38.072 205.627 38.808C205.947 39.352 206.107 40.008 206.107 40.776C206.235 40.552 206.523 40.232 206.971 39.816C207.419 39.4 207.851 39.064 208.267 38.808C209.355 38.072 210.555 37.704 211.867 37.704Z" fill="white"/>
<path d="M242.944 59.832C241.728 61.432 239.792 62.232 237.136 62.232C234.48 62.232 231.984 61.016 229.648 58.584C227.344 56.12 226.192 53.256 226.192 49.992C226.192 46.728 227.36 43.864 229.696 41.4C232.032 38.936 234.592 37.704 237.376 37.704C238.464 37.704 239.456 37.912 240.352 38.328C241.248 38.712 241.856 39.08 242.176 39.432C242.528 39.752 242.8 40.056 242.992 40.344C243.088 39.448 243.408 38.776 243.952 38.328C244.528 37.848 245.44 37.608 246.688 37.608C247.936 37.608 248.848 37.704 249.424 37.896C250 38.088 250.4 38.424 250.624 38.904C250.88 39.352 251.024 39.752 251.056 40.104C251.12 40.456 251.152 41 251.152 41.736V61.608C251.152 65.288 249.872 68.248 247.312 70.488C244.752 72.76 241.872 73.896 238.672 73.896C236.24 73.896 233.92 73.304 231.712 72.12C229.504 70.936 228.4 69.864 228.4 68.904C228.4 67.656 228.88 66.552 229.84 65.592C230.448 64.92 230.912 64.456 231.232 64.2C231.584 63.944 231.984 63.816 232.432 63.816C232.88 63.816 233.344 64.008 233.824 64.392C235.36 65.576 237.024 66.168 238.816 66.168C240.032 66.168 241.024 65.688 241.792 64.728C242.56 63.768 242.944 62.616 242.944 61.272V59.832ZM234.4 50.04C234.4 51.064 234.8 51.992 235.6 52.824C236.432 53.656 237.424 54.072 238.576 54.072C239.76 54.072 240.736 53.656 241.504 52.824C242.272 51.96 242.656 51.032 242.656 50.04C242.656 49.016 242.288 48.072 241.552 47.208C240.816 46.312 239.824 45.864 238.576 45.864C237.328 45.864 236.32 46.296 235.552 47.16C234.784 48.024 234.4 48.984 234.4 50.04Z" fill="white"/>
</svg>
