<svg width="272" height="72" viewBox="0 0 272 72" fill="none" xmlns="http://www.w3.org/2000/svg">
<path d="M113.274 19.112C113.53 18.632 113.962 18.296 114.57 18.104C115.178 17.912 115.946 17.816 116.874 17.816C117.802 17.816 118.538 17.896 119.082 18.056C119.626 18.216 120.042 18.408 120.33 18.632C120.618 18.856 120.842 19.176 121.002 19.592C121.162 20.136 121.242 20.968 121.242 22.088V48.728C121.242 49.464 121.21 50.024 121.146 50.408C121.114 50.76 120.97 51.176 120.714 51.656C120.266 52.52 119.018 52.952 116.97 52.952C114.73 52.952 113.418 52.36 113.034 51.176C112.842 50.632 112.746 49.8 112.746 48.68V38.936H100.026V48.728C100.026 49.464 99.9937 50.024 99.9297 50.408C99.8977 50.76 99.7537 51.176 99.4977 51.656C99.0497 52.52 97.8017 52.952 95.7537 52.952C93.5137 52.952 92.2017 52.36 91.8177 51.176C91.6257 50.632 91.5297 49.8 91.5297 48.68V22.04C91.5297 21.304 91.5457 20.76 91.5777 20.408C91.6417 20.024 91.8017 19.592 92.0577 19.112C92.5057 18.248 93.7537 17.816 95.8017 17.816C98.0417 17.816 99.3697 18.408 99.7857 19.592C99.9457 20.136 100.026 20.968 100.026 22.088V31.88H112.746V22.04C112.746 21.304 112.762 20.76 112.794 20.408C112.858 20.024 113.018 19.592 113.274 19.112ZM150.916 37.352C150.916 39.304 150.42 40.76 149.428 41.72C148.468 42.648 147.396 43.112 146.212 43.112H134.836C134.836 44.008 135.364 44.76 136.42 45.368C137.476 45.976 138.532 46.28 139.588 46.28C141.444 46.28 142.9 46.088 143.956 45.704L144.484 45.512C145.252 45.16 145.892 44.984 146.404 44.984C147.428 44.984 148.308 45.704 149.044 47.144C149.46 48.008 149.668 48.744 149.668 49.352C149.668 52.2 146.26 53.624 139.444 53.624C137.076 53.624 134.964 53.224 133.108 52.424C131.284 51.592 129.86 50.504 128.836 49.16C126.82 46.568 125.812 43.672 125.812 40.472C125.812 36.44 127.108 33.224 129.7 30.824C132.324 28.392 135.588 27.176 139.492 27.176C143.94 27.176 147.204 28.744 149.284 31.88C150.372 33.544 150.916 35.368 150.916 37.352ZM140.788 38.744C142.004 38.744 142.612 38.232 142.612 37.208C142.612 36.472 142.324 35.88 141.748 35.432C141.204 34.984 140.404 34.76 139.348 34.76C138.324 34.76 137.3 35.192 136.276 36.056C135.252 36.888 134.74 37.784 134.74 38.744H140.788ZM155.488 20.024C155.488 19.288 155.504 18.744 155.536 18.392C155.6 18.008 155.744 17.576 155.968 17.096C156.416 16.232 157.664 15.8 159.712 15.8C161.664 15.8 162.88 16.232 163.36 17.096C163.616 17.576 163.76 18.008 163.792 18.392C163.856 18.776 163.888 19.336 163.888 20.072V42.296C163.888 43.448 163.984 44.184 164.176 44.504C164.368 44.792 164.784 44.936 165.424 44.936C166.096 44.936 166.544 44.968 166.768 45.032C166.992 45.064 167.264 45.192 167.584 45.416C168.224 45.832 168.544 46.968 168.544 48.824C168.544 50.84 168.224 52.072 167.584 52.52C166.752 53.096 164.768 53.192 161.632 52.808C159.168 52.488 157.568 51.672 156.832 50.36C155.936 48.792 155.488 46.296 155.488 42.872V20.024ZM172.631 59.864V31.832C172.631 31.096 172.647 30.552 172.679 30.2C172.743 29.848 172.887 29.448 173.111 29C173.559 28.136 174.631 27.704 176.327 27.704C178.023 27.704 179.159 27.928 179.735 28.376C180.343 28.792 180.695 29.416 180.791 30.248C182.007 28.584 183.911 27.752 186.503 27.752C189.127 27.752 191.607 28.984 193.943 31.448C196.279 33.912 197.447 36.776 197.447 40.04C197.447 43.304 196.279 46.168 193.943 48.632C191.639 51.096 189.175 52.328 186.551 52.328C183.927 52.328 182.023 51.592 180.839 50.12V59.816C180.839 60.552 180.807 61.096 180.743 61.448C180.711 61.8 180.567 62.2 180.311 62.648C180.087 63.128 179.687 63.464 179.111 63.656C178.535 63.848 177.751 63.944 176.759 63.944C175.767 63.944 174.967 63.848 174.359 63.656C173.783 63.464 173.367 63.144 173.111 62.696C172.887 62.248 172.743 61.848 172.679 61.496C172.647 61.144 172.631 60.6 172.631 59.864ZM182.135 37.256C181.399 38.12 181.031 39.064 181.031 40.088C181.031 41.112 181.399 42.056 182.135 42.92C182.903 43.752 183.863 44.168 185.015 44.168C186.199 44.168 187.191 43.752 187.991 42.92C188.823 42.088 189.239 41.144 189.239 40.088C189.239 39.032 188.855 38.088 188.087 37.256C187.319 36.392 186.311 35.96 185.063 35.96C183.847 35.96 182.871 36.392 182.135 37.256ZM202.008 31.928C202.008 31.192 202.024 30.648 202.056 30.296C202.12 29.912 202.264 29.48 202.488 29C202.936 28.168 204.184 27.752 206.232 27.752C207.768 27.752 208.856 28.024 209.496 28.568C210.04 29.016 210.328 29.704 210.36 30.632C210.392 30.952 210.408 31.416 210.408 32.024V48.824C210.408 49.56 210.376 50.12 210.312 50.504C210.28 50.856 210.136 51.272 209.88 51.752C209.464 52.584 208.232 53 206.184 53C204.168 53 202.936 52.568 202.488 51.704C202.264 51.224 202.12 50.808 202.056 50.456C202.024 50.104 202.008 49.544 202.008 48.776V31.928ZM209.88 23.048C209.656 23.496 209.24 23.816 208.632 24.008C208.024 24.2 207.208 24.296 206.184 24.296C205.192 24.296 204.392 24.2 203.784 24.008C203.176 23.816 202.744 23.48 202.488 23C202.264 22.52 202.12 22.104 202.056 21.752C202.024 21.368 202.008 20.808 202.008 20.072C202.008 19.336 202.024 18.792 202.056 18.44C202.12 18.056 202.264 17.64 202.488 17.192C202.936 16.328 204.184 15.896 206.232 15.896C208.248 15.896 209.464 16.328 209.88 17.192C210.136 17.672 210.28 18.104 210.312 18.488C210.376 18.84 210.408 19.384 210.408 20.12C210.408 20.856 210.376 21.416 210.312 21.8C210.28 22.152 210.136 22.568 209.88 23.048ZM229.747 27.704C232.947 27.704 235.603 28.936 237.715 31.4C239.859 33.832 240.931 36.808 240.931 40.328V48.776C240.931 49.512 240.899 50.072 240.835 50.456C240.803 50.808 240.675 51.208 240.451 51.656C240.003 52.52 238.755 52.952 236.707 52.952C234.435 52.952 233.123 52.36 232.771 51.176C232.579 50.632 232.483 49.816 232.483 48.728V40.28C232.483 38.968 232.099 37.944 231.331 37.208C230.595 36.472 229.587 36.104 228.307 36.104C227.059 36.104 226.035 36.488 225.235 37.256C224.467 38.024 224.083 39.032 224.083 40.28V48.776C224.083 49.512 224.051 50.072 223.987 50.456C223.955 50.808 223.811 51.208 223.555 51.656C223.139 52.52 221.907 52.952 219.859 52.952C217.843 52.952 216.611 52.52 216.163 51.656C215.939 51.176 215.795 50.76 215.731 50.408C215.699 50.024 215.683 49.464 215.683 48.728V31.736C215.683 31.032 215.699 30.504 215.731 30.152C215.795 29.768 215.955 29.352 216.211 28.904C216.659 28.104 217.891 27.704 219.907 27.704C221.859 27.704 223.059 28.072 223.507 28.808C223.827 29.352 223.987 30.008 223.987 30.776C224.115 30.552 224.403 30.232 224.851 29.816C225.299 29.4 225.731 29.064 226.147 28.808C227.235 28.072 228.435 27.704 229.747 27.704ZM262.264 49.832C261.048 51.432 259.112 52.232 256.456 52.232C253.8 52.232 251.304 51.016 248.968 48.584C246.664 46.12 245.512 43.256 245.512 39.992C245.512 36.728 246.68 33.864 249.016 31.4C251.352 28.936 253.912 27.704 256.696 27.704C257.784 27.704 258.776 27.912 259.672 28.328C260.568 28.712 261.176 29.08 261.496 29.432C261.848 29.752 262.12 30.056 262.312 30.344C262.408 29.448 262.728 28.776 263.272 28.328C263.848 27.848 264.76 27.608 266.008 27.608C267.256 27.608 268.168 27.704 268.744 27.896C269.32 28.088 269.72 28.424 269.944 28.904C270.2 29.352 270.344 29.752 270.376 30.104C270.44 30.456 270.472 31 270.472 31.736V51.608C270.472 55.288 269.192 58.248 266.632 60.488C264.072 62.76 261.192 63.896 257.992 63.896C255.56 63.896 253.24 63.304 251.032 62.12C248.824 60.936 247.72 59.864 247.72 58.904C247.72 57.656 248.2 56.552 249.16 55.592C249.768 54.92 250.232 54.456 250.552 54.2C250.904 53.944 251.304 53.816 251.752 53.816C252.2 53.816 252.664 54.008 253.144 54.392C254.68 55.576 256.344 56.168 258.136 56.168C259.352 56.168 260.344 55.688 261.112 54.728C261.88 53.768 262.264 52.616 262.264 51.272V49.832ZM253.72 40.04C253.72 41.064 254.12 41.992 254.92 42.824C255.752 43.656 256.744 44.072 257.896 44.072C259.08 44.072 260.056 43.656 260.824 42.824C261.592 41.96 261.976 41.032 261.976 40.04C261.976 39.016 261.608 38.072 260.872 37.208C260.136 36.312 259.144 35.864 257.896 35.864C256.648 35.864 255.64 36.296 254.872 37.16C254.104 38.024 253.72 38.984 253.72 40.04Z" fill="white"/>
<path d="M44.7642 0.292145H27.2585C12.3655 0.292145 0.292236 12.3654 0.292236 27.2584V44.7641C0.292236 59.6571 12.3655 71.7303 27.2585 71.7303H44.7642C59.6572 71.7303 71.7304 59.6571 71.7304 44.7641V27.2584C71.7304 12.3654 59.6572 0.292145 44.7642 0.292145Z" fill="white" stroke="white" stroke-width="0.25" stroke-miterlimit="10"/>
<path d="M46.2024 41.1011C45.708 41.1011 45.1238 41.9775 45.1238 43.1236C45.1238 44.2697 45.708 45.1686 46.2024 45.1686C46.6968 45.1686 47.2811 44.382 47.2811 43.1236C47.2811 41.8652 46.6519 41.1011 46.2024 41.1011Z" fill="black" stroke="black" stroke-miterlimit="10"/>
<path d="M24.2474 41.1011C23.7979 41.1011 23.1687 41.8877 23.1687 43.1236C23.1687 44.3596 23.7979 45.1686 24.2474 45.1686C24.6968 45.1686 25.326 44.382 25.326 43.1236C25.326 41.8652 24.6294 41.1011 24.2474 41.1011Z" fill="black" stroke="black" stroke-miterlimit="10"/>
<path d="M58.427 44.9438C58.427 44.3596 58.427 44.4045 58.427 43.8202C58.427 39.3258 57.8652 25.8427 51.6854 17.9775C51.0337 17.2135 50.1349 15.3708 49.4382 14.6067C48.9668 14.1659 47.722 13.8502 47.191 13.4831C43.269 10.0164 39.8947 7.25122 34.9215 5.61798C26.8731 10.2982 19.3727 18.5459 15.7529 27.1236C14.2443 30.8429 13.2976 34.7661 12.9439 38.7641C12.8091 40.3146 12.7417 41.8652 12.7417 43.5056C12.7417 54.8764 22.7417 64.1124 35.0114 64.1124C46.3821 64.1124 56.4943 57.618 57.8201 47.4158C57.8201 47.4158 58.4045 45.191 58.427 44.9438ZM24.2473 47.4832C23.24 47.3486 22.3262 46.8228 21.7038 46.0195C21.0813 45.2162 20.8003 44.2 20.9215 43.191C20.8006 42.1846 21.0823 41.1711 21.7052 40.3714C22.3282 39.5717 23.2419 39.0505 24.2473 38.9214C25.2528 39.0505 26.1665 39.5717 26.7894 40.3714C27.4123 41.1711 27.6941 42.1846 27.5732 43.191C27.6756 44.1892 27.3858 45.188 26.7652 45.9764C26.1445 46.7648 25.2416 47.281 24.2473 47.4158V47.4832ZM39.3709 48.8315C38.8772 49.485 38.2481 50.0242 37.5267 50.412C36.8053 50.7999 36.0086 51.0273 35.1911 51.0787H34.9215C33.4494 51.0531 32.0427 50.4663 30.9889 49.4382C30.8856 49.332 30.8043 49.2065 30.7495 49.0688C30.6947 48.9311 30.6676 48.784 30.6697 48.6358C30.6718 48.4877 30.703 48.3414 30.7616 48.2053C30.8203 48.0692 30.9051 47.946 31.0114 47.8427C31.1176 47.7394 31.2431 47.6581 31.3808 47.6033C31.5185 47.5485 31.6656 47.5214 31.8138 47.5235C31.9619 47.5256 32.1082 47.5569 32.2443 47.6155C32.3804 47.6741 32.5036 47.759 32.6069 47.8652C32.9305 48.1873 33.317 48.4394 33.7423 48.6056C34.1675 48.7718 34.6225 48.8487 35.0788 48.8315C35.5615 48.7995 36.0318 48.6646 36.4581 48.4359C36.8845 48.2073 37.257 47.8901 37.5507 47.5056C37.7265 47.2643 37.991 47.1026 38.286 47.0563C38.581 47.0099 38.8823 47.0826 39.1237 47.2585C39.3651 47.4343 39.5267 47.6988 39.5731 47.9938C39.6195 48.2888 39.5467 48.5901 39.3709 48.8315ZM46.1125 47.4832C45.1052 47.3486 44.1914 46.8228 43.5689 46.0195C42.9465 45.2162 42.6654 44.2 42.7866 43.191C42.6658 42.1846 42.9475 41.1711 43.5704 40.3714C44.1933 39.5717 45.107 39.0505 46.1125 38.9214C47.1179 39.0505 48.0316 39.5717 48.6546 40.3714C49.2775 41.1711 49.5592 42.1846 49.4383 43.191C49.5428 44.1757 49.2653 45.1629 48.6632 45.949C48.0611 46.7351 47.1802 47.2601 46.2024 47.4158L46.1125 47.4832Z" fill="#FF4848"/>
<path d="M52.5394 16.3596C52.5394 16.3596 52.5394 16.3596 52.4271 16.3596C51.7668 15.5633 51.0536 14.8126 50.2922 14.1124C46.1659 9.69352 41.0419 6.32634 35.3484 4.29215L34.8765 4.15732L33.2585 4.47192C30.077 6.31967 27.1144 8.52089 24.4271 11.0337C16.3372 17.3483 14.1799 25.6854 13.1911 37.7978C13.0498 39.2915 12.9898 40.7919 13.0113 42.2921C13.0113 42.4719 13.0113 42.6517 13.0113 42.8315C13.0113 55.4157 21.7754 66.3596 35.281 66.3596C41.0468 66.5138 46.6753 64.5864 51.1363 60.9301C55.5973 57.2738 58.5923 52.1333 59.5731 46.4495C59.564 46.3748 59.564 46.2994 59.5731 46.2247V45.4607C61.1012 33.5056 58.6967 23.6629 52.5394 16.3596ZM35.3035 64C23.0338 64 13.0338 54.7641 13.0338 43.3933C13.0338 41.7528 13.0338 40.2023 13.2361 38.6517C13.5897 34.6537 14.5364 30.7305 16.0451 27.0113C19.6648 18.4335 25.9742 11.2645 34.0226 6.58428C38.9958 8.21753 43.5837 10.8479 47.5057 14.3146C48.0367 14.6817 48.5399 15.0873 49.0113 15.5281C49.708 16.2023 50.3597 16.9214 51.0113 17.7753C57.2361 25.6405 57.7529 38.9663 57.7529 43.3708C57.7529 43.9551 57.7529 44.5393 57.7529 45.1236C57.7529 45.3708 57.7529 45.573 57.7529 45.7528C56.09 55.9775 46.6743 64 35.3035 64Z" fill="#FF4848"/>
<path d="M24.2472 38.8539C23.2418 38.9831 22.3281 39.5042 21.7052 40.3039C21.0822 41.1037 20.8005 42.1171 20.9214 43.1236C20.8002 44.1326 21.0812 45.1487 21.7037 45.952C22.3262 46.7554 23.2399 47.2812 24.2472 47.4157C25.2545 47.2812 26.1683 46.7554 26.7908 45.952C27.4132 45.1487 27.6943 44.1326 27.5731 43.1236C27.694 42.1171 27.4123 41.1037 26.7893 40.3039C26.1664 39.5042 25.2527 38.9831 24.2472 38.8539ZM24.2472 45.1686C23.7978 45.1686 23.1686 44.382 23.1686 43.1236C23.1686 41.8652 23.7978 41.1011 24.2472 41.1011C24.6967 41.1011 25.3259 41.8877 25.3259 43.1236C25.3259 44.3596 24.6293 45.1686 24.2472 45.1686Z" fill="black" stroke="black" stroke-miterlimit="10"/>
<path d="M46.2023 38.8539C45.1969 38.9831 44.2832 39.5042 43.6602 40.3039C43.0373 41.1037 42.7556 42.1171 42.8765 43.1236C42.7553 44.1326 43.0363 45.1487 43.6588 45.952C44.2812 46.7554 45.195 47.2812 46.2023 47.4157C47.2096 47.2812 48.1234 46.7554 48.7459 45.952C49.3683 45.1487 49.6494 44.1326 49.5282 43.1236C49.6491 42.1171 49.3673 41.1037 48.7444 40.3039C48.1215 39.5042 47.2078 38.9831 46.2023 38.8539ZM46.2023 45.1686C45.7079 45.1686 45.1237 44.2697 45.1237 43.1236C45.1237 41.9775 45.7079 41.1011 46.2023 41.1011C46.6967 41.1011 47.281 41.8877 47.281 43.1236C47.281 44.3596 46.6518 45.1686 46.2023 45.1686Z" fill="black" stroke="black" stroke-miterlimit="10"/>
<path d="M37.5507 47.4382C37.257 47.8227 36.8845 48.1399 36.4581 48.3685C36.0318 48.5972 35.5615 48.7321 35.0788 48.7641C34.6225 48.7813 34.1675 48.7044 33.7422 48.5382C33.317 48.3719 32.9305 48.1199 32.6068 47.7978C32.3983 47.5832 32.113 47.4603 31.8137 47.4561C31.5145 47.4519 31.2259 47.5667 31.0113 47.7753C30.7968 47.9839 30.6739 48.2692 30.6697 48.5684C30.6655 48.8676 30.7803 49.1563 30.9889 49.3708C32.0427 50.3989 33.4494 50.9857 34.9215 51.0113H35.1911C36.0086 50.9599 36.8053 50.7325 37.5267 50.3446C38.2481 49.9568 38.8772 49.4176 39.3709 48.7641C39.5467 48.5227 39.6194 48.2214 39.5731 47.9264C39.5267 47.6314 39.3651 47.3669 39.1237 47.191C38.8823 47.0152 38.581 46.9425 38.286 46.9888C37.991 47.0352 37.7265 47.1969 37.5507 47.4382Z" fill="black"/>
<path d="M47.1013 39.9775C47.5373 40.1137 47.9372 40.3459 48.2717 40.657C48.6061 40.9681 48.8666 41.3503 49.0339 41.7753C49.3018 42.4539 49.3018 43.209 49.0339 43.8877" stroke="white" stroke-miterlimit="10" stroke-linecap="round"/>
<path d="M24.2473 39.3708C24.7278 39.4797 25.1783 39.6932 25.5667 39.9962C25.9551 40.2992 26.2719 40.6841 26.4945 41.1236C26.6978 41.5407 26.8145 41.9947 26.8377 42.4581C26.8609 42.9216 26.79 43.3849 26.6293 43.8202" stroke="white" stroke-miterlimit="10" stroke-linecap="round"/>
<path d="M42.6069 14.9438C45.2952 16.4344 47.6051 18.5227 49.3584 21.0475C51.1117 23.5722 52.2616 26.466 52.7193 29.5056" stroke="white" stroke-miterlimit="10" stroke-linecap="round"/>
<path d="M54.2247 35.0337L54.5843 36.4944" stroke="white" stroke-miterlimit="10" stroke-linecap="round"/>
<g style="mix-blend-mode:darken" opacity="0.07">
<path d="M34.2023 4.76407C35.3483 5.88766 23.6854 15.0562 18.8764 31.2809C17.2135 36.8764 15.5056 42.6966 17.663 48.5169C21.0337 57.5056 32.4719 63.1461 46.4719 63.7304C41.3381 66.2544 35.4585 66.8137 29.9409 65.3028C24.4233 63.792 19.6487 60.3154 16.5169 55.5281C13.191 50.3371 13.191 45.3483 13.191 39.1461C13.191 35.7528 13.191 24.5169 20.1349 15.6854C22.1125 13.2506 24.376 11.0626 26.8764 9.16856C28 8.20227 33.4158 3.97755 34.2023 4.76407Z" fill="#53C3EA"/>
<path d="M34.2023 4.76407C35.3483 5.88766 23.6854 15.0562 18.8764 31.2809C17.2135 36.8764 15.5056 42.6966 17.663 48.5169C21.0337 57.5056 32.4719 63.1461 46.4719 63.7304C41.3381 66.2544 35.4585 66.8137 29.9409 65.3028C24.4233 63.792 19.6487 60.3154 16.5169 55.5281C13.191 50.3371 13.191 45.3483 13.191 39.1461C13.191 35.7528 13.191 24.5169 20.1349 15.6854C22.1125 13.2506 24.376 11.0626 26.8764 9.16856C28 8.20227 33.4158 3.97755 34.2023 4.76407Z" stroke="#53C3EA" stroke-width="0.25" stroke-miterlimit="10"/>
</g>
</svg>
