<svg width="64" height="72" viewBox="0 0 64 72" fill="none" xmlns="http://www.w3.org/2000/svg">
<path d="M64 18.271V43.694C64 53.7844 55.5565 61.9651 45.1421 61.9651H43.2346L33.4941 71.3963C33.1127 71.7659 32.5849 72 32 72C31.4596 72 30.97 71.809 30.5949 71.4887L30.4296 71.3286L30.4232 71.3224L20.7653 61.9651H18.8516C8.44347 61.9651 0 53.7844 0 43.694V18.271C0 8.1807 8.44347 0 18.8579 0H45.1421C55.5565 0 64 8.1807 64 18.271Z" fill="white"/>
<path d="M39.8136 35.8416C39.4312 35.8416 38.9794 36.4473 38.9794 37.2395C38.9794 38.0316 39.4312 38.6529 39.8136 38.6529C40.196 38.6529 40.6478 38.1093 40.6478 37.2395C40.6478 36.3697 40.1612 35.8416 39.8136 35.8416Z" fill="black" stroke="black" stroke-miterlimit="10"/>
<path d="M22.8335 35.8416C22.4859 35.8416 21.9993 36.3852 21.9993 37.2395C21.9993 38.0938 22.4859 38.6529 22.8335 38.6529C23.1811 38.6529 23.6677 38.1093 23.6677 37.2395C23.6677 36.3697 23.129 35.8416 22.8335 35.8416Z" fill="black" stroke="black" stroke-miterlimit="10"/>
<path d="M48.8265 38.6886C48.8265 38.2847 48.8265 37.6901 48.8265 37.2863C48.8265 34.1798 48.2971 25.0738 43.5176 19.6374C43.0136 19.1093 43.1863 18.9991 42.6476 18.471C42.2829 18.1663 41.318 17.1695 40.9074 16.9158C37.8741 14.5197 34.3128 12.6016 30.4665 11.4727C24.2419 14.7076 18.9098 17.2077 16.1102 23.1366C14.8051 27.0246 13.5 29.3574 13.5 34.023C13.5 35.7988 13.5 36.1524 13.5 37.2863C13.5 45.1457 21.6691 51.7471 31.1584 51.7471C39.9526 51.7471 47.7127 46.5179 48.7381 39.4662C48.9814 39.2643 48.8091 38.8594 48.8265 38.6886ZM22.8335 40.253C22.0544 40.16 21.3477 39.7965 20.8663 39.2413C20.3849 38.686 20.1675 37.9837 20.2613 37.2863C20.1678 36.5906 20.3857 35.8901 20.8674 35.3373C21.3492 34.7846 22.0559 34.4243 22.8335 34.3351C23.6111 34.4243 24.3178 34.7846 24.7996 35.3373C25.2813 35.8901 25.4992 36.5906 25.4057 37.2863C25.4849 37.9762 25.2608 38.6666 24.7808 39.2116C24.3008 39.7565 23.6025 40.1133 22.8335 40.2064V40.253ZM34.5301 41.1849C34.1483 41.6367 33.6617 42.0093 33.1038 42.2774C32.5458 42.5455 31.9297 42.7027 31.2975 42.7382H31.0889C29.9504 42.7205 28.8625 42.3149 28.0474 41.6043C27.9676 41.5309 27.9046 41.4441 27.8623 41.349C27.8199 41.2538 27.799 41.1521 27.8006 41.0497C27.8022 40.9473 27.8263 40.8462 27.8717 40.7521C27.917 40.6581 27.9827 40.5729 28.0648 40.5015C28.147 40.4301 28.2441 40.3739 28.3506 40.336C28.457 40.2982 28.5708 40.2794 28.6854 40.2809C28.8 40.2823 28.9131 40.3039 29.0184 40.3444C29.1236 40.385 29.2189 40.4436 29.2988 40.5171C29.5491 40.7397 29.848 40.9139 30.1769 41.0288C30.5058 41.1437 30.8577 41.1969 31.2106 41.1849C31.5839 41.1628 31.9476 41.0696 32.2774 40.9116C32.6071 40.7535 32.8952 40.5343 33.1223 40.2685C33.2583 40.1017 33.4629 39.99 33.691 39.9579C33.9192 39.9259 34.1522 39.9762 34.3389 40.0977C34.5256 40.2192 34.6506 40.402 34.6865 40.6059C34.7223 40.8098 34.6661 41.0181 34.5301 41.1849ZM39.744 40.253C38.965 40.16 38.2583 39.7965 37.7769 39.2413C37.2955 38.686 37.0781 37.9837 37.1718 37.2863C37.0783 36.5906 37.2962 35.8901 37.778 35.3373C38.2598 34.7846 38.9664 34.4243 39.744 34.3351C40.5217 34.4243 41.2283 34.7846 41.7101 35.3373C42.1919 35.8901 42.4098 36.5906 42.3163 37.2863C42.397 37.9669 42.1824 38.6492 41.7168 39.1926C41.2511 39.7359 40.5699 40.0988 39.8136 40.2064L39.744 40.253Z" fill="#FF4848"/>
<path d="M44.7146 18.7403C44.7146 18.7403 44.7146 18.7403 44.6277 18.7403C44.1171 18.19 43.5655 17.671 42.9767 17.1871C39.7853 14.1328 35.8224 11.8054 31.4191 10.3993L31.0541 10.3062L29.8028 10.5236C27.3422 11.8008 25.0509 13.3222 22.9725 15.0591C16.7158 19.4238 15.0473 25.1863 14.2826 33.5584C14.1733 34.5908 14.1269 35.6279 14.1436 36.6649C14.1436 36.7891 14.1436 36.9134 14.1436 37.0376C14.1436 45.7359 20.9217 53.3002 31.3669 53.3002C35.8262 53.4068 40.1793 52.0746 43.6295 49.5474C47.0796 47.0202 49.3959 43.4671 50.1545 39.5384C50.1474 39.4868 50.1474 39.4346 50.1545 39.3831V38.855C51.3363 30.5916 49.4767 23.7884 44.7146 18.7403ZM31.3843 51.6693C21.895 51.6693 14.1609 45.2854 14.1609 37.426C14.1609 36.2921 14.1609 35.2203 14.3174 34.1486C14.5909 31.3852 15.323 28.6735 16.4898 26.1027C19.2894 20.1738 24.1691 15.2186 30.3937 11.9837C34.24 13.1126 37.7882 14.9307 40.8216 17.3269C41.2322 17.5806 41.6214 17.8609 41.986 18.1656C42.5248 18.6316 43.0288 19.1286 43.5328 19.7189C48.347 25.1553 48.7468 34.366 48.7468 37.4104C48.7468 37.8143 48.7468 38.2181 48.7468 38.622C48.7468 38.7928 48.7468 38.9326 48.7468 39.0569C47.4606 46.1242 40.1785 51.6693 31.3843 51.6693Z" fill="#FF4848"/>
<path d="M22.8335 34.2883C22.0559 34.3776 21.3493 34.7378 20.8675 35.2906C20.3857 35.8433 20.1678 36.5438 20.2613 37.2395C20.1676 37.9369 20.385 38.6393 20.8664 39.1945C21.3478 39.7498 22.0545 40.1132 22.8335 40.2062C23.6126 40.1132 24.3193 39.7498 24.8007 39.1945C25.2821 38.6393 25.4995 37.9369 25.4058 37.2395C25.4993 36.5438 25.2814 35.8433 24.7996 35.2906C24.3178 34.7378 23.6112 34.3776 22.8335 34.2883ZM22.8335 38.653C22.486 38.653 21.9993 38.1093 21.9993 37.2395C21.9993 36.3697 22.486 35.8416 22.8335 35.8416C23.1811 35.8416 23.6678 36.3852 23.6678 37.2395C23.6678 38.0938 23.129 38.653 22.8335 38.653Z" fill="black" stroke="black" stroke-miterlimit="10"/>
<path d="M39.8135 34.2883C39.0359 34.3776 38.3293 34.7378 37.8475 35.2906C37.3657 35.8433 37.1478 36.5438 37.2413 37.2395C37.1476 37.9369 37.3649 38.6393 37.8463 39.1945C38.3278 39.7498 39.0345 40.1132 39.8135 40.2062C40.5926 40.1132 41.2993 39.7498 41.7807 39.1945C42.2621 38.6393 42.4795 37.9369 42.3857 37.2395C42.4792 36.5438 42.2614 35.8433 41.7796 35.2906C41.2978 34.7378 40.5911 34.3776 39.8135 34.2883ZM39.8135 38.653C39.4312 38.653 38.9793 38.0317 38.9793 37.2395C38.9793 36.4474 39.4312 35.8416 39.8135 35.8416C40.1959 35.8416 40.6478 36.3852 40.6478 37.2395C40.6478 38.0938 40.1611 38.653 39.8135 38.653Z" fill="black" stroke="black" stroke-miterlimit="10"/>
<path d="M33.1223 40.2217C32.8951 40.4874 32.607 40.7066 32.2773 40.8647C31.9476 41.0227 31.5838 41.116 31.2105 41.1381C30.8576 41.15 30.5057 41.0969 30.1768 40.9819C29.8479 40.867 29.549 40.6928 29.2987 40.4702C29.1374 40.3219 28.9168 40.2369 28.6853 40.234C28.4539 40.2311 28.2307 40.3105 28.0648 40.4547C27.8988 40.5988 27.8038 40.796 27.8005 41.0028C27.7972 41.2097 27.886 41.4092 28.0474 41.5575C28.8624 42.2681 29.9504 42.6737 31.0888 42.6913H31.2974C31.9296 42.6558 32.5458 42.4986 33.1037 42.2306C33.6617 41.9625 34.1482 41.5898 34.53 41.1381C34.666 40.9712 34.7223 40.763 34.6864 40.5591C34.6506 40.3552 34.5255 40.1723 34.3389 40.0508C34.1522 39.9293 33.9191 39.879 33.691 39.911C33.4628 39.9431 33.2583 40.0548 33.1223 40.2217Z" fill="black"/>
<path d="M40.5088 35.0649C40.846 35.1591 41.1553 35.3196 41.414 35.5346C41.6726 35.7496 41.8741 36.0138 42.0035 36.3075C42.2107 36.7766 42.2107 37.2985 42.0035 37.7676" stroke="white" stroke-miterlimit="10" stroke-linecap="round"/>
<path d="M22.8335 34.6458C23.2051 34.721 23.5535 34.8686 23.8539 35.078C24.1543 35.2874 24.3993 35.5535 24.5715 35.8573C24.7287 36.1456 24.819 36.4594 24.8369 36.7797C24.8548 37.1 24.8 37.4203 24.6758 37.7212" stroke="white" stroke-miterlimit="10" stroke-linecap="round"/>
<path d="M37.0328 17.7617C39.1119 18.792 40.8984 20.2354 42.2544 21.9805C43.6104 23.7257 44.4997 25.7258 44.8537 27.8268" stroke="white" stroke-miterlimit="10" stroke-linecap="round"/>
<path d="M46.0182 31.6479L46.2963 32.6576" stroke="white" stroke-miterlimit="10" stroke-linecap="round"/>
<g style="mix-blend-mode:darken" opacity="0.07">
<path d="M30.5328 10.7255C31.4191 11.5021 22.399 17.8394 18.6797 29.0539C17.3936 32.9215 16.0728 36.9444 17.7412 40.9674C20.3482 47.1804 29.1945 51.079 40.0221 51.4829C36.0516 53.2275 31.5043 53.6141 27.237 52.5698C22.9696 51.5255 19.277 49.1225 16.8548 45.8135C14.2826 42.2255 13.5 38.3098 13.5 34.0229C13.5 31.6775 14.2826 24.3786 19.653 18.2743C21.1825 16.5914 22.9331 15.079 24.8669 13.7699C25.7359 13.102 29.9245 10.1819 30.5328 10.7255Z" fill="#53C3EA"/>
<path d="M30.5328 10.7255C31.4191 11.5021 22.399 17.8394 18.6797 29.0539C17.3936 32.9215 16.0728 36.9444 17.7412 40.9674C20.3482 47.1804 29.1945 51.079 40.0221 51.4829C36.0516 53.2275 31.5043 53.6141 27.237 52.5698C22.9696 51.5255 19.277 49.1225 16.8548 45.8135C14.2826 42.2255 13.5 38.3098 13.5 34.0229C13.5 31.6775 14.2826 24.3786 19.653 18.2743C21.1825 16.5914 22.9331 15.079 24.8669 13.7699C25.7359 13.102 29.9245 10.1819 30.5328 10.7255Z" stroke="#53C3EA" stroke-width="0.25" stroke-miterlimit="10"/>
</g>
</svg>
