<svg width="600" height="588" viewBox="0 0 600 588" fill="none" xmlns="http://www.w3.org/2000/svg">
<g clip-path="url(#clip0)">
<path d="M300 600C465.685 600 600 465.685 600 300C600 134.315 465.685 0 300 0C134.315 0 0 134.315 0 300C0 465.685 134.315 600 300 600Z" fill="#FC7A7A"/>
<path d="M437.001 421.756C441.526 422.643 445.785 424.566 449.443 427.373C452.038 425.595 453.59 423.599 455.202 421.513C456.814 419.428 458.467 417.318 461.198 415.387C445.906 405.315 433.612 403.585 421.501 409.711C412.798 414.107 406.577 422.07 406.316 422.408C404.516 424.761 402.952 427.285 401.647 429.944C406.683 426.745 411.939 425.364 419.86 423.291C425.566 421.798 430.501 420.506 437.001 421.756Z" fill="#22BCE0"/>
<path d="M451.801 408.123L448.282 395.373C440.811 392.529 434.423 390.04 433.671 385.188C433.541 384.382 433.612 383.084 436.041 377.823C437.57 374.495 439.277 371.251 441.154 368.106V368.071L441.231 367.97L441.273 367.929L441.362 367.852H441.415L441.51 367.792H441.563L441.67 367.751H441.723H441.836H442.007H442.102C442.126 367.748 442.15 367.748 442.173 367.751C443.368 368.15 444.631 368.307 445.888 368.213C447.758 368.119 449.542 367.394 450.948 366.157C452.3 364.96 453.199 363.335 453.496 361.554C453.65 360.558 453.91 358.893 452.874 357.365C452.574 356.884 452.182 356.469 451.72 356.142C451.259 355.816 450.736 355.585 450.184 355.463C449.423 355.4 448.661 355.573 448.003 355.96C446.924 356.479 445.771 356.825 444.585 356.985C443.582 357.116 442.566 357.116 441.563 356.985C441.361 356.959 441.174 356.865 441.033 356.719C440.892 356.572 440.805 356.382 440.787 356.18C440.496 352.915 440.325 349.562 440.277 346.214C440.277 344.697 440.277 343.53 440.277 342.612C440.277 340.242 440.277 339.75 439.88 339.003C438.755 336.9 436.154 336.634 432.557 336.296C429.794 336.11 427.059 335.629 424.399 334.862C412.709 331.171 406.837 319.925 404.325 315.126C403.294 313.147 402.091 310.843 401.072 308.384C398.033 310.7 396.001 313.343 395.041 316.258C394.241 318.693 394.182 322.118 394.069 328.943C394.069 330.614 394.069 331.71 394.069 332.498C394.069 333.997 394.069 334.352 393.773 335.123C391.96 339.797 386.171 342.979 381.769 344.288C381.094 344.49 380.513 344.632 379.992 344.751C378.665 345.071 378.214 345.207 377.971 345.645C377.728 346.084 378.487 347.565 380.211 350.705C380.531 351.298 380.886 351.937 381.277 352.66C382.539 354.989 382.984 355.806 383.055 356.014C384.53 359.189 383.718 361.791 382.865 364.552C382.167 366.514 381.746 368.564 381.615 370.642C381.254 380.087 387.653 387.19 387.718 387.232C391.107 390.787 394.922 392.078 397.707 393.038C402.625 394.705 407.87 395.172 413.005 394.401C413.159 394.377 413.317 394.396 413.461 394.454C415.617 395.296 417.522 396.675 418.995 398.46C421.042 401.014 422.129 404.205 422.07 407.477C431.479 403.152 441 403.306 451.801 408.123ZM403.762 370.956C403.402 371.901 402.846 372.758 402.131 373.473C401.417 374.187 400.559 374.743 399.615 375.104C398.874 375.372 398.092 375.509 397.304 375.507C395.5 375.497 393.764 374.817 392.434 373.599C392.273 373.438 392.18 373.222 392.174 372.995C392.168 372.767 392.249 372.547 392.401 372.377C392.553 372.208 392.764 372.104 392.99 372.085C393.217 372.066 393.442 372.135 393.619 372.278C394.324 372.948 395.199 373.413 396.149 373.622C397.1 373.831 398.089 373.776 399.011 373.463C399.71 373.185 400.344 372.766 400.875 372.233C401.406 371.7 401.822 371.064 402.097 370.364C402.188 370.153 402.357 369.986 402.568 369.896C402.779 369.807 403.017 369.803 403.231 369.885C403.445 369.967 403.62 370.128 403.718 370.336C403.816 370.543 403.829 370.78 403.756 370.998L403.762 370.956ZM408.17 349.248C406.091 349.248 404.521 346.575 404.521 343.026C404.521 339.477 406.091 336.805 408.17 336.805C410.25 336.805 411.82 339.477 411.82 343.026C411.82 346.575 410.244 349.248 408.17 349.248ZM412.97 332.83C412.885 332.855 412.797 332.869 412.709 332.871C412.519 332.87 412.335 332.808 412.183 332.695C412.031 332.582 411.918 332.424 411.862 332.243C411.614 331.36 411.094 330.577 410.376 330.006C409.658 329.435 408.779 329.105 407.862 329.062C405.664 329.002 404.355 330.886 404.307 330.963C404.241 331.059 404.156 331.142 404.058 331.205C403.96 331.268 403.85 331.312 403.735 331.332C403.62 331.353 403.502 331.351 403.388 331.327C403.273 331.302 403.165 331.255 403.069 331.189C402.973 331.122 402.891 331.037 402.828 330.939C402.764 330.841 402.721 330.731 402.7 330.616C402.679 330.501 402.681 330.383 402.706 330.269C402.73 330.155 402.777 330.046 402.844 329.95C403.039 329.672 404.847 327.231 407.91 327.284C409.198 327.336 410.437 327.791 411.452 328.587C412.466 329.382 413.205 330.477 413.562 331.716C413.597 331.828 413.609 331.946 413.598 332.062C413.587 332.179 413.553 332.293 413.498 332.396C413.443 332.5 413.368 332.591 413.277 332.666C413.186 332.74 413.082 332.796 412.97 332.83Z" fill="#A35745"/>
<path d="M356.423 476.318C354.97 471.948 354.628 467.286 355.427 462.75L336.604 475.524L342.529 490.716L356.423 476.318Z" fill="#22BCE0"/>
<path d="M165.932 155.889C171.744 155.078 180.087 152.643 186.9 145.627C188.713 143.761 192.09 140.295 193.737 134.809C196.901 124.298 191.243 114.664 188.998 111.399L129.405 113.651C127.728 116.667 123.747 125.329 126.863 134.785C129.713 143.429 136.699 147.559 141.326 150.296C150.433 155.676 159.729 156.31 165.932 155.889ZM151.92 133.689C151.994 133.603 152.084 133.532 152.186 133.481C152.288 133.43 152.399 133.4 152.512 133.393L160.469 132.913L160.108 126.958C160.101 126.841 160.117 126.724 160.155 126.614C160.193 126.503 160.252 126.401 160.33 126.314C160.408 126.226 160.502 126.155 160.607 126.104C160.712 126.053 160.826 126.023 160.943 126.016L167.686 125.613C167.802 125.605 167.919 125.62 168.03 125.658C168.14 125.695 168.242 125.754 168.33 125.831C168.418 125.909 168.489 126.002 168.54 126.107C168.591 126.212 168.621 126.326 168.628 126.443L168.989 132.498L175.886 131.988C176.123 131.971 176.357 132.048 176.538 132.202C176.709 132.355 176.817 132.566 176.84 132.794L177.249 139.637C177.256 139.754 177.24 139.871 177.202 139.982C177.164 140.092 177.104 140.194 177.026 140.282C176.949 140.369 176.855 140.441 176.749 140.492C176.644 140.543 176.53 140.573 176.413 140.579L169.505 140.994L169.86 146.955C169.873 147.189 169.792 147.42 169.636 147.595C169.479 147.771 169.26 147.877 169.025 147.891L162.282 148.3H162.229C162.003 148.297 161.786 148.21 161.622 148.055C161.457 147.9 161.357 147.689 161.34 147.464L160.985 141.504L153.034 141.984H152.98C152.763 141.984 152.553 141.906 152.388 141.764C152.216 141.612 152.11 141.4 152.091 141.172L151.677 134.329C151.672 134.092 151.759 133.863 151.92 133.689Z" fill="#F9F9F9"/>
<path d="M162.584 139.655C162.82 139.642 163.051 139.723 163.227 139.879C163.404 140.036 163.511 140.255 163.526 140.491C163.538 140.703 163.472 140.913 163.342 141.082C163.211 141.251 163.024 141.367 162.816 141.409L163.124 146.492L168.089 146.196L167.786 141.095C167.551 141.079 167.331 140.97 167.175 140.793C167.02 140.615 166.941 140.383 166.957 140.147C166.973 139.911 167.081 139.691 167.259 139.536C167.437 139.38 167.669 139.302 167.905 139.317L175.483 138.867L175.175 133.807L167.621 134.37C167.404 134.386 167.19 134.322 167.018 134.191C166.845 134.059 166.727 133.869 166.685 133.657C166.642 133.444 166.679 133.224 166.788 133.036C166.897 132.849 167.071 132.708 167.277 132.64L166.963 127.42L161.998 127.717L162.353 133.677L162.407 134.601C162.421 134.836 162.342 135.067 162.187 135.244C162.031 135.42 161.812 135.528 161.577 135.543H161.518C161.292 135.542 161.075 135.455 160.911 135.3C160.747 135.145 160.649 134.933 160.635 134.708V134.666L153.567 135.093L153.869 140.165L162.584 139.655Z" fill="#FF4848"/>
<path d="M271.152 367.129C266.314 371.243 260.586 374.176 254.42 375.696C259.367 406.162 260.617 413.687 262.288 423.433C265.896 444.496 270.624 466.685 276.342 489.347L291.249 485.549C290.011 434.595 287.694 400.788 286.823 396.931C285.899 392.908 284.72 389.146 284.708 389.11C284.074 387.078 283.588 385.751 283.582 385.739C282.557 382.907 281.751 381.117 281.74 381.1C280.388 378.237 278.891 375.444 277.254 372.734C275.821 370.364 274.256 368.029 272.615 365.784C272.153 366.24 271.661 366.69 271.152 367.129ZM278.226 395.343C278.334 395.292 278.452 395.264 278.571 395.259C278.691 395.255 278.81 395.274 278.922 395.317C279.033 395.36 279.135 395.425 279.221 395.508C279.307 395.591 279.376 395.69 279.423 395.8C279.469 395.911 279.493 396.029 279.493 396.149C279.493 396.268 279.469 396.387 279.422 396.497C279.375 396.606 279.306 396.706 279.22 396.789C279.133 396.871 279.031 396.936 278.919 396.978C276.202 398.125 273.56 399.443 271.01 400.924C268.667 402.294 266.407 403.802 264.243 405.439C264.089 405.554 263.902 405.616 263.71 405.617C263.525 405.616 263.344 405.558 263.193 405.45C263.043 405.341 262.93 405.189 262.87 405.013C262.811 404.837 262.808 404.647 262.862 404.47C262.916 404.292 263.024 404.136 263.171 404.023C267.803 400.513 272.857 397.597 278.214 395.343H278.226Z" fill="#F9CCA7"/>
<path d="M274.606 489.643C268.894 466.969 264.166 444.798 260.558 423.735C258.875 413.894 257.596 406.322 252.56 375.151C251.967 371.596 251.517 368.746 251.132 366.382C214.86 353.83 175.254 354.943 139.744 369.511C139.995 386.859 135.953 404.001 127.977 419.41C127.903 419.555 127.79 419.676 127.651 419.761C127.512 419.846 127.352 419.89 127.189 419.89C127.122 419.899 127.055 419.899 126.988 419.89C125.293 419.493 123.611 419.054 121.934 418.598L124.037 443.05C138.588 451.395 153.688 458.745 169.232 465.049C177.438 468.373 185.875 471.442 194.306 474.168H194.342C195.084 472.912 195.884 471.685 196.741 470.488C196.866 470.311 197.051 470.186 197.262 470.137C197.473 470.088 197.695 470.118 197.885 470.222L218.622 481.426C225.175 478.009 231.939 475.013 238.873 472.455C242.268 471.205 245.746 470.044 249.212 469.007C249.335 468.971 249.464 468.962 249.591 468.981C249.718 468.999 249.839 469.044 249.947 469.114C255.132 472.465 259.966 476.332 264.374 480.655C267.302 483.534 270.032 486.608 272.544 489.857L274.606 489.643Z" fill="#F9F9F9"/>
<path d="M249.301 470.832C245.995 471.827 242.689 472.935 239.46 474.12C232.45 476.709 225.614 479.747 218.995 483.215C218.867 483.283 218.723 483.319 218.577 483.319C218.432 483.319 218.288 483.283 218.16 483.215L197.719 472.165C194.654 476.592 192.342 481.495 190.876 486.675C188.831 494.006 188.498 501.709 189.904 509.19C191.126 507.552 192.492 506.027 193.986 504.633C202.874 496.338 213.384 495.385 248.211 492.161C254.728 491.569 262.063 490.882 270.411 490.058C264.459 482.552 257.33 476.059 249.301 470.832Z" fill="#D8A3A3"/>
<path d="M456.808 59.1302C453.128 63.3606 446.735 74.0194 444.958 98.0329L493.489 97.5352C493.394 85.0397 490.781 73.7943 485.668 63.9708C483.138 59.1184 478.913 51.0072 472.135 50.1659H469.825C463.989 50.8591 459.059 56.5411 456.808 59.1302Z" fill="#F9F9F9"/>
<path d="M248.205 584.21L251.072 600.729C251.078 600.778 251.078 600.828 251.072 600.877H414.214C412.577 593.619 411.515 586.243 411.038 578.819L248.205 584.21Z" fill="#FF4848"/>
<path d="M282.486 536.485L305.83 528.771L326.146 507.708L281.55 516.424L282.486 536.485Z" fill="#FC7A7A"/>
<path d="M200.041 567.514C207.122 560.173 216.27 558.87 220.53 558.692C221.087 557.702 223.012 556.275 228.706 553.792C233.262 551.824 238.035 550.402 242.926 549.556L280.146 537.256L279.192 516.88L254.171 521.774H253.999C253.824 521.774 253.654 521.722 253.508 521.625C253.363 521.528 253.249 521.39 253.182 521.229C251.406 517.011 250.368 512.52 250.113 507.951C248.578 507.721 247.031 507.589 245.479 507.554C242.179 507.483 239.691 507.933 234.358 508.935C227.841 510.161 226.929 510.771 226.425 511.091C225.584 511.632 224.844 512.316 224.239 513.112C223.494 514.062 222.625 514.909 221.655 515.63C220.381 516.641 218.881 517.328 217.283 517.632C216.013 517.881 214.805 518.378 213.728 519.096C212.429 519.942 211.304 521.03 210.416 522.301C209.357 523.883 207.866 525.127 206.12 525.886C204.857 526.516 203.478 526.88 202.068 526.958C201.153 526.985 200.255 526.707 199.514 526.17C198.929 525.741 198.471 525.163 198.186 524.496C197.902 523.829 197.802 523.097 197.897 522.378C198.169 520.927 199.33 520.204 200.681 519.363C201.037 519.143 201.422 518.9 201.831 518.628C203.367 517.573 204.761 516.324 205.978 514.913C205.386 514.22 204.568 513.556 203.715 513.586C203.229 513.586 202.903 513.882 202.044 514.729C201.3 515.48 200.508 516.183 199.674 516.833C196.487 519.286 194.899 520.512 194.034 521.341C192.926 522.396 192.167 523.261 191.557 523.96C190.437 525.246 189.697 526.093 188.316 526.152C186.699 526.247 185.146 525.181 183.576 522.965L183.541 522.923C183.544 522.908 183.544 522.892 183.541 522.876C183.523 522.85 183.507 522.822 183.493 522.793C183.482 522.768 183.472 522.742 183.464 522.716C183.452 522.689 183.442 522.661 183.434 522.633V522.544C183.434 522.544 183.434 522.491 183.434 522.461C183.431 522.432 183.431 522.402 183.434 522.372C183.431 522.345 183.431 522.317 183.434 522.289V522.201C183.434 522.201 183.434 522.165 183.434 522.147C184.611 518.283 186.309 514.597 188.482 511.192C187.866 508.398 187.479 505.559 187.327 502.702C187.264 502.708 187.2 502.708 187.137 502.702H186.947C173.705 499.793 160.428 496.522 147.482 492.973C127.894 487.641 118.563 484.246 111.613 480.738L115.47 600.836H194.401C189.726 588.998 191.924 575.915 200.041 567.514Z" fill="#F9F9F9"/>
<path d="M238.826 570.494C235.324 572.455 230.329 574.256 223.942 575.826C223.872 575.838 223.8 575.838 223.729 575.826C223.534 575.83 223.343 575.768 223.186 575.651C223.029 575.534 222.916 575.368 222.864 575.179C222.812 574.991 222.823 574.791 222.897 574.61C222.972 574.428 223.104 574.277 223.273 574.179C222.166 572.795 221.585 571.063 221.632 569.291C221.851 566.05 224.63 564.066 228.842 561.062L229.186 560.819C228.149 561.01 227.1 561.125 226.046 561.162C225.536 561.162 225.056 561.192 224.612 561.192C222.74 561.192 221.448 561.002 220.808 560.41C216.886 560.546 208.082 561.69 201.321 568.705C193.619 576.703 191.593 589.187 196.173 600.51C196.216 600.615 196.239 600.727 196.238 600.841H249.295L246.303 583.63L238.826 570.494Z" fill="#F2D5F7"/>
<path d="M446.878 137.718L486.574 139.786L492.007 115.363C492.881 110.056 493.356 104.691 493.429 99.3127L444.798 99.8104C444.007 112.484 444.705 125.207 446.878 137.718Z" fill="#FF4848"/>
<path d="M349.135 550.782C353.353 555.558 373.96 546.51 390.609 535.377C399.172 529.654 407.085 523.015 414.208 515.577L391.302 492.665C388.268 490.781 384.766 489.786 381.194 489.791C374.227 489.934 369.345 494.454 363.159 500.178C361.802 501.434 360.404 502.731 358.911 504.047C351.552 510.465 343.483 516.021 334.862 520.607C338.547 521.75 345.568 524.885 349.224 532.711C351.422 537.41 350.231 541.652 349.271 545.059C348.537 547.855 348.11 549.627 349.135 550.782ZM366.945 519.57C367.289 516.157 370.619 510.463 375.388 507.217C379.778 504.254 385.371 503.152 388.245 503.839C388.679 503.907 389.093 504.066 389.461 504.306C389.829 504.546 390.141 504.862 390.378 505.232C392.387 508.846 382.853 516.21 381.757 517.04C381.378 517.324 373.836 522.965 369.623 522.965C369.261 522.987 368.899 522.936 368.557 522.814C368.216 522.692 367.903 522.501 367.638 522.254C367.333 521.885 367.113 521.453 366.993 520.989C366.873 520.525 366.857 520.041 366.945 519.57Z" fill="#F9F7F9"/>
<path d="M479.915 296.617C481.923 298.987 483.991 304.029 488.115 314.06L489.709 317.929C491.533 322.246 492.992 326.71 494.069 331.271C494.421 332.688 494.684 334.124 494.857 335.573C494.933 336.336 495.09 337.089 495.325 337.818C496.451 341.569 498.199 343.601 500.409 346.173C502.66 348.661 504.645 351.378 506.334 354.278C509.48 359.782 511.216 362.816 511.388 365.44C511.891 373.143 506.648 381.194 499.141 384.104C497.033 384.902 494.795 385.304 492.541 385.289C491.629 385.287 490.718 385.224 489.815 385.099C489.708 385.371 489.59 385.638 489.471 385.905C484.489 396.961 471.555 399.887 464.516 399.887H464.279C460.463 399.852 456.902 398.608 450.373 396.131L453.928 409.101C457.184 410.733 460.325 412.584 463.331 414.64C463.454 414.724 463.554 414.837 463.622 414.969C463.69 415.101 463.723 415.248 463.72 415.397C463.716 415.545 463.676 415.69 463.602 415.819C463.527 415.948 463.422 416.056 463.295 416.133C460.132 418.083 458.431 420.281 456.63 422.586C455.029 424.834 453.102 426.831 450.912 428.511C453.663 430.872 456.091 433.585 458.135 436.58C460.623 440.135 464.38 445.574 463.621 452.417C462.993 458.117 459.474 462.039 458.123 463.521L458.064 463.58C450.527 471.958 435.881 490.633 416.21 516.092C416.196 516.109 416.18 516.125 416.163 516.139C409.414 523.267 401.951 529.684 393.891 535.289L417.763 535.982C418.13 535.125 418.511 534.275 418.906 533.434C426.265 517.869 438.606 504.716 459.053 482.93C461.305 480.561 463.414 478.339 465.452 476.223C474.079 467.253 480.892 460.167 488.15 448.039C493.056 439.839 497.423 430.158 501.138 419.262C514.706 379.488 512.857 342.167 511.376 312.182C510.617 296.854 509.101 281.271 506.879 265.855C499.556 261.897 485.419 256.482 470.322 262.685C457.596 267.917 451.256 278.682 448.75 284.133C467.194 284.809 476.176 292.197 479.915 296.617Z" fill="#FF4848"/>
<path d="M193.435 475.744C185.063 473.03 176.692 469.985 168.551 466.684C152.787 460.292 137.479 452.829 122.734 444.348C122.61 444.276 122.505 444.176 122.429 444.055C122.353 443.934 122.307 443.797 122.295 443.655L120.097 418.077C112.218 415.837 104.528 412.98 97.0968 409.533C92.6018 407.448 88.2115 405.147 83.9258 402.631C83.6414 405.893 83.4439 409.156 83.3333 412.419H83.3807C83.6102 412.471 83.8097 412.612 83.9362 412.81C84.0626 413.009 84.1057 413.249 84.0562 413.479C84.0144 413.661 83.9162 413.824 83.7757 413.947C83.6353 414.069 83.4597 414.144 83.2741 414.16C82.9492 426.838 83.978 439.514 86.3432 451.973C86.983 455.297 87.7237 458.656 88.5591 461.956C94.3425 467.52 100.744 472.405 107.637 476.514C108.769 477.183 109.918 477.835 111.127 478.481H111.186C118.177 482.178 127.308 485.591 147.98 491.243C160.878 494.798 174.102 498.033 187.291 500.93C187.185 495.927 187.818 490.936 189.169 486.118C190.198 482.511 191.629 479.031 193.435 475.744Z" fill="#F9CCA7"/>
<path d="M72.8108 406.855C75.2805 409.227 78.2805 410.976 81.5618 411.956C81.6922 408.516 81.9133 405.066 82.2254 401.606C76.6787 398.262 71.3458 394.575 66.2579 390.568C66.3882 394.413 67.2651 401.458 72.8108 406.855Z" fill="#F2D5F7"/>
<path d="M248.377 493.933C214.012 497.109 203.638 498.08 195.195 505.931C190.793 510.031 187.463 515.529 185.294 522.26C186.367 523.688 187.392 524.405 188.257 524.393C188.849 524.393 189.211 523.99 190.248 522.805C191.059 521.848 191.919 520.935 192.825 520.068C193.761 519.173 195.373 517.929 198.59 515.452C199.374 514.843 200.116 514.182 200.812 513.473C201.748 512.555 202.488 511.832 203.721 511.82C205.161 511.82 206.559 512.679 207.868 514.397C207.992 514.553 208.059 514.747 208.059 514.945C208.059 515.144 207.992 515.338 207.868 515.494C206.43 517.267 204.742 518.822 202.856 520.109C202.429 520.399 202.026 520.654 201.671 520.885C200.456 521.644 199.822 522.07 199.698 522.71C199.667 523.102 199.736 523.495 199.899 523.852C200.061 524.21 200.312 524.52 200.628 524.754C202.026 525.803 204.604 524.653 205.445 524.274C206.924 523.639 208.182 522.579 209.059 521.229C210.069 519.796 211.344 518.569 212.815 517.615C214.063 516.788 215.46 516.21 216.927 515.914C218.284 515.667 219.559 515.087 220.636 514.226C221.494 513.586 222.264 512.835 222.923 511.992C223.641 511.057 224.517 510.254 225.512 509.622C226.383 509.03 227.764 508.401 234.086 507.211C239.157 506.251 241.948 505.729 245.568 505.795C247.085 505.831 248.598 505.954 250.101 506.162C250.047 501.907 250.671 497.671 251.949 493.613L248.377 493.933Z" fill="#A35745"/>
<path d="M201.689 286.971C196.267 284.844 191.231 282.024 188.109 276.626C184.696 270.731 184.874 264.184 185.798 259.267C182.849 259.952 179.831 260.294 176.804 260.286C174.404 260.284 172.008 260.086 169.641 259.693C168.136 259.444 157.791 257.483 149.526 250.03C150.541 256.451 149.823 263.027 147.446 269.078C145.901 272.935 143.696 276.494 140.929 279.595L186.805 329.891L201.689 286.971Z" fill="#F9CCA7"/>
<path d="M126.697 417.988C134.416 402.846 138.283 386.035 137.955 369.043C137.946 368.974 137.946 368.904 137.955 368.835C137.925 366.021 137.818 363.503 137.724 361.346C136.859 341.391 131.888 321.513 122.953 302.263C122.898 302.157 122.866 302.04 122.857 301.921C122.849 301.802 122.865 301.682 122.904 301.569C122.943 301.456 123.004 301.351 123.084 301.263C123.165 301.174 123.262 301.102 123.37 301.052C123.479 301.002 123.597 300.974 123.716 300.97C123.836 300.966 123.955 300.987 124.066 301.03C124.178 301.073 124.28 301.139 124.365 301.223C124.451 301.306 124.519 301.406 124.564 301.517C133.6 320.974 138.624 341.077 139.501 361.269C139.578 363.135 139.673 365.262 139.714 367.615C175.158 353.241 214.59 352.1 250.806 364.397C250.326 361.488 249.988 359.486 249.739 357.969C249.206 354.758 249.022 353.679 248.554 350.569C246.457 336.592 244.727 322.544 243.406 308.816C243.394 308.7 243.406 308.582 243.44 308.47C243.475 308.357 243.531 308.253 243.605 308.163C243.68 308.072 243.771 307.997 243.875 307.942C243.978 307.887 244.092 307.853 244.208 307.842C244.325 307.83 244.443 307.842 244.555 307.876C244.667 307.911 244.771 307.967 244.862 308.041C244.952 308.116 245.027 308.207 245.083 308.311C245.138 308.414 245.172 308.528 245.183 308.644C246.504 322.343 248.234 336.361 250.32 350.302C250.788 353.401 250.966 354.45 251.505 357.673C251.973 360.493 252.719 364.972 254.171 373.913C259.96 372.466 265.339 369.708 269.893 365.853C274.446 361.997 278.054 357.147 280.436 351.677L247.049 302.447C245.351 300.812 243.504 299.339 241.533 298.045C235.158 293.862 229.832 293.192 223.67 292.41C219.09 291.818 213.906 291.184 207.459 289.003C206.091 288.541 204.722 288.079 203.359 287.581L188.014 331.87C187.966 332.019 187.879 332.152 187.762 332.256C187.646 332.36 187.504 332.431 187.35 332.462H187.173C187.049 332.462 186.926 332.437 186.813 332.387C186.7 332.337 186.598 332.264 186.515 332.172L139.732 280.916C135.108 285.9 129.904 290.314 124.233 294.063C123.308 294.656 122.301 295.296 121.217 295.977C115.239 299.57 109.59 303.684 104.337 308.271C104.106 308.473 103.567 308.947 103.122 309.349C95.0764 316.696 90.8934 326.478 86.4498 336.888C86.0173 337.901 85.5848 338.926 85.1404 339.951C82.2787 346.581 75.2044 362.561 70.6422 372.757L70.5889 372.87C68.219 378.161 66.3526 382.35 66.246 388.304C83.9587 402.529 104.595 412.665 126.68 417.988H126.697Z" fill="#F9F9F9"/>
<path d="M280.294 514.889L328.285 505.504L341.154 492.161L334.998 476.247L293.032 486.942C292.966 487.101 292.856 487.237 292.714 487.335C292.572 487.433 292.405 487.488 292.232 487.493C292.029 487.492 291.832 487.421 291.676 487.291L275.981 491.29H275.862L273 491.575C272.964 491.613 272.924 491.649 272.882 491.681C272.729 491.795 272.543 491.857 272.352 491.857C272.161 491.857 271.975 491.795 271.821 491.681C265.262 492.327 259.32 492.866 253.91 493.394C252.421 497.809 251.75 502.459 251.931 507.116C252.1 511.483 253.014 515.789 254.633 519.848L279.198 515.043V514.889H280.294Z" fill="#F9F7F9"/>
<path d="M247.66 582.433L410.943 577.023C410.712 572.172 410.807 567.311 411.228 562.472L240.645 570.097L247.66 582.433Z" fill="#FF4848"/>
<path d="M537.22 316.933C534.749 305.563 529.026 279.31 508.81 267.022C510.937 282.042 512.365 297.203 513.135 312.128C514.623 342.268 516.477 379.778 502.802 419.872C499.442 430.01 495.03 439.768 489.637 448.987C482.279 461.293 475.418 468.438 466.696 477.491C464.664 479.607 462.549 481.793 460.315 484.181C439.987 505.842 427.728 518.918 420.476 534.228C411.85 552.477 410.28 574.6 415.819 599.994H519.161C523.279 575.566 553.318 390.911 537.22 316.933Z" fill="#FF4848"/>
<path d="M249.68 562.744C253.423 561.143 257.291 559.853 261.245 558.887C267.024 557.508 272.943 556.796 278.884 556.766H278.973C288.932 556.695 311.216 554.693 347.049 550.64C346.457 548.862 347.014 546.783 347.642 544.579C348.56 541.29 349.609 537.57 347.689 533.464C343.471 524.422 334.358 522.177 332.557 521.815L282.599 538.328V538.66L281.414 538.713L243.643 551.197C240.779 554.017 237.748 556.662 234.566 559.118C232.847 560.446 231.289 561.559 229.909 562.543C225.975 565.345 223.605 567.034 223.445 569.44C223.356 570.779 223.936 572.212 225.151 573.694C231.076 572.124 235.638 570.382 238.725 568.497L238.891 568.391C239.608 567.952 241.498 566.791 244.105 565.428C246.712 564.066 248.862 563.088 249.68 562.744Z" fill="#A35745"/>
<path d="M240.331 551.89C236.588 552.726 232.934 553.916 229.417 555.445C224.375 557.643 222.805 558.81 222.307 559.296C223.516 559.506 224.746 559.559 225.969 559.456C228.584 559.362 231.156 558.758 233.541 557.679C235.875 555.848 238.144 553.922 240.331 551.89Z" fill="#A35745"/>
<path d="M358.253 476.241C359.034 478.641 360.092 480.941 361.405 483.096C363.016 485.612 365.016 487.856 367.33 489.744C367.473 489.859 367.576 490.016 367.626 490.192C367.676 490.369 367.669 490.557 367.607 490.729C367.545 490.902 367.431 491.051 367.281 491.156C367.13 491.261 366.951 491.316 366.767 491.314C366.552 491.322 366.341 491.25 366.175 491.113C363.715 489.12 361.591 486.745 359.883 484.08C358.749 482.227 357.799 480.269 357.045 478.232L343.115 492.677C343.09 492.828 343.025 492.97 342.929 493.09C342.832 493.209 342.707 493.301 342.564 493.358L342.422 493.4L330.098 506.174C330.112 506.388 330.048 506.6 329.917 506.77C329.786 506.94 329.598 507.057 329.387 507.098L329.162 507.139L309.432 527.598L332.095 520.109C341.327 515.389 349.946 509.557 357.762 502.743C359.237 501.446 360.629 500.154 361.974 498.904C368.183 493.157 373.54 488.198 381.183 488.044C383.399 488.019 385.604 488.375 387.7 489.098L387.404 488.802C387.252 488.645 387.162 488.438 387.152 488.22C387.143 488.001 387.213 487.787 387.35 487.617C392.481 481.508 397.387 475.092 401.937 468.539C404.503 464.86 406.997 461.056 409.367 457.252C409.493 457.055 409.691 456.914 409.919 456.862C410.147 456.81 410.387 456.85 410.586 456.973C410.784 457.096 410.927 457.293 410.982 457.52C411.036 457.748 410.999 457.988 410.878 458.188C408.508 462.022 405.978 465.849 403.401 469.558C398.969 475.927 394.205 482.172 389.234 488.138L415.369 514.273C434.749 489.187 449.194 470.784 456.689 462.46L456.748 462.395C458.087 460.908 461.234 457.418 461.802 452.287C462.49 446.107 458.958 441.03 456.624 437.659C454.585 434.639 452.136 431.917 449.348 429.571C449.206 429.623 449.052 429.637 448.902 429.613C448.752 429.588 448.611 429.526 448.493 429.431C448.374 429.337 448.281 429.213 448.223 429.073C448.166 428.933 448.145 428.78 448.163 428.629C444.773 426.08 440.849 424.334 436.687 423.522C430.584 422.337 425.826 423.593 420.322 425.033C410.908 427.497 405.717 428.854 400.077 433.25L400.036 433.28H399.994L399.923 433.327L399.804 433.369H399.775C392.114 435.402 384.758 438.447 377.9 442.422C367.295 448.572 360.286 452.637 357.756 460.955C356.043 466.554 356.944 472.041 358.295 476.17C358.247 476.206 358.247 476.224 358.253 476.241Z" fill="#22BCE0"/>
<path d="M391.379 537.03C379.802 544.733 362.519 553.822 353.134 553.822C351.019 553.822 349.307 553.348 348.151 552.299C311.708 556.446 289.075 558.473 278.961 558.544H278.872C273.069 558.573 267.288 559.267 261.642 560.611C257.793 561.556 254.028 562.814 250.385 564.374C249.615 564.712 247.529 565.636 244.922 567.01C244.099 567.443 243.358 567.852 242.695 568.195L411.429 560.706C412.235 552.84 414.124 545.122 417.04 537.771L391.379 537.03Z" fill="#FF4848"/>
<path d="M140.26 230.235C140.379 230.208 140.502 230.208 140.621 230.232C140.741 230.257 140.854 230.306 140.953 230.377C141.052 230.445 141.136 230.533 141.201 230.634C141.265 230.736 141.307 230.85 141.326 230.969C141.726 233.983 142.596 236.916 143.903 239.661C145.125 242.228 146.723 244.598 148.643 246.694C148.704 246.744 148.758 246.802 148.803 246.866C156.849 255.498 168.32 257.667 169.878 257.927C175.424 258.867 181.105 258.625 186.551 257.216C186.654 257.174 186.765 257.154 186.876 257.157C190.914 256.025 194.646 254.001 197.796 251.232C203.934 245.799 205.611 239.092 208.384 227.983C212.217 212.656 211.21 200.385 210.392 191.326C199.091 187.498 188.398 182.066 178.641 175.198C175.898 173.267 173.226 171.193 170.636 169.031C171 170.005 171.276 171.011 171.46 172.035C172.426 177.568 169.09 185.49 161.583 195.574C156.521 202.335 150.727 208.514 144.306 214C144.259 214.036 144.205 214.06 144.158 214.089L144.051 214.149C143.969 214.175 143.883 214.193 143.797 214.202H143.731C143.628 214.199 143.526 214.179 143.429 214.143H143.394C143.297 214.105 143.209 214.048 143.133 213.977C139.951 210.878 135.306 210.019 131.574 211.856C127.326 213.935 126.378 218.497 126.241 219.368C126.312 220.216 126.994 226.253 132.196 229.133C134.664 230.456 137.526 230.847 140.26 230.235ZM198.24 215.174C195.716 215.174 193.737 212.264 193.737 208.55C193.737 204.835 195.716 201.926 198.24 201.926C200.764 201.926 202.749 204.835 202.749 208.55C202.749 212.264 200.77 215.174 198.24 215.174ZM193.05 193.483C193.535 192.585 194.255 191.835 195.132 191.313C196.01 190.792 197.012 190.517 198.033 190.52C198.928 190.562 199.802 190.807 200.588 191.239C201.374 191.67 202.05 192.275 202.565 193.009C202.697 193.204 202.746 193.444 202.701 193.676C202.656 193.908 202.521 194.112 202.326 194.244C202.229 194.309 202.12 194.355 202.005 194.378C201.891 194.402 201.773 194.402 201.658 194.38C201.426 194.335 201.222 194.2 201.09 194.004C200.737 193.506 200.276 193.093 199.742 192.798C199.207 192.503 198.613 192.332 198.003 192.298C197.308 192.293 196.624 192.478 196.026 192.833C195.427 193.188 194.937 193.699 194.608 194.312C194.531 194.452 194.418 194.569 194.28 194.65C194.143 194.731 193.986 194.774 193.826 194.774C193.677 194.774 193.53 194.735 193.4 194.662C193.2 194.549 193.051 194.363 192.986 194.143C192.921 193.923 192.944 193.686 193.05 193.483ZM178.902 227.308C178.984 227.087 179.151 226.908 179.365 226.81C179.58 226.712 179.824 226.704 180.045 226.786C182.419 227.687 185.029 227.751 187.445 226.97C188.63 226.567 191.048 225.738 191.871 223.836C192.511 222.355 191.871 220.873 190.893 218.646C190.317 217.375 189.807 216.076 189.365 214.753C188.142 210.82 187.739 206.678 188.18 202.583C188.191 202.467 188.225 202.353 188.28 202.25C188.335 202.146 188.41 202.055 188.501 201.98C188.591 201.905 188.696 201.849 188.808 201.815C188.92 201.781 189.038 201.769 189.155 201.78C189.271 201.792 189.385 201.826 189.488 201.881C189.592 201.936 189.683 202.011 189.758 202.101C189.832 202.192 189.888 202.296 189.923 202.408C189.957 202.521 189.969 202.638 189.957 202.755C189.536 206.606 189.911 210.502 191.059 214.202C191.486 215.47 191.976 216.716 192.529 217.935C193.607 220.405 194.454 222.355 193.506 224.547C192.369 227.166 189.436 228.167 188.026 228.647C186.763 229.078 185.438 229.296 184.104 229.293C182.51 229.287 180.93 229.002 179.435 228.451C179.324 228.412 179.223 228.35 179.136 228.271C179.05 228.192 178.98 228.097 178.93 227.991C178.88 227.884 178.852 227.769 178.848 227.652C178.843 227.535 178.861 227.418 178.902 227.308ZM177.936 232.563C178.012 232.652 178.069 232.754 178.106 232.865C178.142 232.976 178.155 233.093 178.146 233.209C178.137 233.325 178.104 233.439 178.051 233.542C177.998 233.646 177.924 233.738 177.835 233.813C176.495 234.941 174.805 235.57 173.054 235.591C172.846 235.591 172.633 235.591 172.42 235.561C170.482 235.381 168.692 234.447 167.437 232.96C167.3 232.778 167.238 232.55 167.265 232.324C167.291 232.098 167.403 231.89 167.578 231.744C167.753 231.598 167.977 231.525 168.204 231.539C168.432 231.554 168.645 231.655 168.8 231.822C169.759 232.938 171.11 233.642 172.574 233.79C174.062 233.91 175.538 233.437 176.68 232.474C176.859 232.321 177.091 232.244 177.326 232.26C177.561 232.277 177.78 232.386 177.936 232.563ZM175.862 208.573C175.862 212.288 173.883 215.197 171.353 215.197C168.823 215.197 166.85 212.288 166.85 208.573C166.85 204.858 168.829 201.949 171.353 201.949C173.877 201.949 175.862 204.835 175.862 208.573ZM163.971 194.057C164.454 193.158 165.172 192.408 166.049 191.886C166.925 191.364 167.927 191.091 168.948 191.095C169.843 191.134 170.718 191.379 171.504 191.811C172.29 192.242 172.966 192.849 173.48 193.583C173.597 193.778 173.635 194.01 173.586 194.232C173.537 194.454 173.405 194.649 173.217 194.776C173.029 194.904 172.799 194.954 172.574 194.918C172.35 194.881 172.149 194.76 172.011 194.579C171.657 194.081 171.196 193.67 170.662 193.374C170.127 193.079 169.534 192.908 168.924 192.872C168.227 192.866 167.541 193.051 166.941 193.407C166.342 193.764 165.851 194.277 165.523 194.893C165.447 195.031 165.334 195.147 165.198 195.227C165.061 195.308 164.905 195.35 164.747 195.349C164.598 195.349 164.452 195.312 164.32 195.242C164.218 195.186 164.128 195.11 164.055 195.019C163.982 194.928 163.927 194.823 163.895 194.711C163.862 194.598 163.852 194.481 163.865 194.365C163.879 194.248 163.914 194.136 163.971 194.034V194.057Z" fill="#F9CCA7"/>
<path d="M263.183 404.023C263.036 404.136 262.928 404.292 262.874 404.47C262.82 404.647 262.823 404.837 262.882 405.013C262.942 405.189 263.054 405.341 263.205 405.45C263.356 405.558 263.537 405.616 263.722 405.617C263.914 405.616 264.101 405.554 264.255 405.439C266.415 403.802 268.671 402.294 271.01 400.924C273.56 399.445 276.202 398.129 278.919 396.984C279.031 396.942 279.133 396.877 279.22 396.795C279.306 396.712 279.375 396.612 279.422 396.502C279.469 396.392 279.493 396.274 279.493 396.154C279.493 396.035 279.469 395.916 279.423 395.806C279.376 395.696 279.308 395.597 279.221 395.514C279.135 395.431 279.033 395.366 278.922 395.323C278.81 395.28 278.691 395.261 278.571 395.265C278.452 395.27 278.334 395.298 278.226 395.349C272.869 397.603 267.815 400.519 263.183 404.029V404.023Z" fill="black"/>
<path d="M166.85 208.573C166.85 212.288 168.829 215.197 171.353 215.197C173.877 215.197 175.862 212.288 175.862 208.573C175.862 204.858 173.883 201.949 171.353 201.949C168.823 201.949 166.85 204.835 166.85 208.573Z" fill="black"/>
<path d="M198.24 201.926C195.716 201.926 193.737 204.835 193.737 208.55C193.737 212.264 195.716 215.174 198.24 215.174C200.764 215.174 202.749 212.264 202.749 208.55C202.749 204.835 200.77 201.926 198.24 201.926Z" fill="black"/>
<path d="M179.429 228.451C180.924 229.002 182.504 229.287 184.098 229.293C185.432 229.296 186.757 229.078 188.02 228.647C189.43 228.167 192.363 227.166 193.5 224.547C194.448 222.355 193.601 220.399 192.523 217.935C191.97 216.716 191.48 215.47 191.053 214.202C189.905 210.502 189.53 206.606 189.951 202.755C189.974 202.519 189.902 202.284 189.752 202.102C189.601 201.919 189.384 201.803 189.149 201.78C188.913 201.758 188.678 201.829 188.495 201.98C188.312 202.131 188.197 202.348 188.174 202.583C187.733 206.678 188.136 210.82 189.359 214.753C189.801 216.076 190.311 217.375 190.888 218.646C191.865 220.879 192.505 222.355 191.865 223.836C191.042 225.738 188.606 226.567 187.439 226.97C185.023 227.751 182.413 227.687 180.039 226.786C179.927 226.732 179.804 226.702 179.679 226.698C179.555 226.695 179.431 226.717 179.315 226.765C179.2 226.812 179.096 226.883 179.01 226.974C178.924 227.064 178.857 227.171 178.816 227.289C178.774 227.406 178.757 227.531 178.767 227.656C178.777 227.78 178.812 227.901 178.872 228.011C178.931 228.12 179.013 228.216 179.112 228.292C179.211 228.368 179.325 228.422 179.447 228.451H179.429Z" fill="black"/>
<path d="M193.394 194.685C193.524 194.759 193.671 194.798 193.82 194.798C193.98 194.798 194.137 194.755 194.274 194.674C194.412 194.592 194.525 194.476 194.602 194.336C194.931 193.723 195.421 193.211 196.02 192.856C196.618 192.501 197.302 192.316 197.997 192.321C198.607 192.355 199.201 192.526 199.736 192.822C200.27 193.117 200.731 193.529 201.084 194.028C201.216 194.223 201.421 194.359 201.652 194.404C201.767 194.426 201.885 194.425 201.999 194.402C202.114 194.379 202.223 194.333 202.32 194.268C202.416 194.202 202.499 194.119 202.564 194.021C202.628 193.924 202.673 193.814 202.695 193.7C202.718 193.585 202.717 193.467 202.694 193.353C202.671 193.238 202.625 193.129 202.56 193.032C202.044 192.299 201.368 191.694 200.582 191.262C199.796 190.831 198.922 190.585 198.027 190.544C197.006 190.541 196.004 190.815 195.126 191.337C194.249 191.859 193.529 192.608 193.044 193.506C192.938 193.71 192.915 193.947 192.98 194.167C193.045 194.387 193.194 194.573 193.394 194.685Z" fill="black"/>
<path d="M164.32 195.242C164.452 195.312 164.598 195.349 164.747 195.349C164.905 195.35 165.061 195.308 165.198 195.227C165.334 195.147 165.447 195.031 165.523 194.893C165.851 194.277 166.342 193.764 166.941 193.407C167.541 193.051 168.227 192.866 168.924 192.872C169.534 192.907 170.127 193.079 170.662 193.374C171.196 193.67 171.657 194.081 172.011 194.579C172.149 194.76 172.35 194.881 172.574 194.918C172.799 194.954 173.029 194.904 173.217 194.776C173.405 194.649 173.537 194.454 173.586 194.232C173.635 194.01 173.597 193.778 173.48 193.583C172.966 192.849 172.29 192.242 171.504 191.811C170.718 191.379 169.843 191.134 168.948 191.095C167.927 191.091 166.925 191.364 166.049 191.886C165.172 192.408 164.454 193.158 163.971 194.057C163.864 194.262 163.841 194.499 163.906 194.721C163.971 194.942 164.12 195.129 164.32 195.242Z" fill="black"/>
<path d="M172.574 233.778C171.11 233.63 169.759 232.926 168.8 231.811C168.645 231.643 168.432 231.542 168.204 231.527C167.977 231.513 167.753 231.586 167.578 231.732C167.403 231.878 167.291 232.086 167.265 232.312C167.238 232.538 167.3 232.766 167.437 232.948C168.692 234.435 170.482 235.369 172.42 235.549C172.633 235.549 172.846 235.579 173.054 235.579C174.805 235.558 176.495 234.929 177.835 233.801C177.924 233.726 177.998 233.634 178.051 233.53C178.104 233.427 178.137 233.314 178.146 233.197C178.155 233.081 178.142 232.964 178.106 232.853C178.069 232.742 178.012 232.64 177.936 232.551C177.782 232.372 177.564 232.261 177.328 232.242C177.093 232.223 176.86 232.298 176.68 232.451C175.54 233.418 174.064 233.895 172.574 233.778Z" fill="black"/>
<path d="M407.904 327.284C404.841 327.231 403.033 329.654 402.838 329.95C402.771 330.046 402.724 330.155 402.7 330.269C402.675 330.383 402.673 330.501 402.694 330.616C402.715 330.731 402.758 330.841 402.822 330.939C402.885 331.037 402.967 331.122 403.063 331.189C403.159 331.255 403.267 331.302 403.382 331.327C403.496 331.351 403.614 331.353 403.729 331.332C403.844 331.312 403.954 331.268 404.052 331.205C404.15 331.142 404.235 331.06 404.301 330.963C404.355 330.886 405.664 329.002 407.856 329.062C408.773 329.105 409.652 329.435 410.37 330.006C411.088 330.577 411.608 331.36 411.856 332.243C411.912 332.424 412.025 332.582 412.177 332.695C412.329 332.808 412.513 332.87 412.703 332.871C412.791 332.869 412.879 332.856 412.964 332.83C413.076 332.796 413.18 332.74 413.271 332.666C413.362 332.591 413.437 332.5 413.492 332.396C413.547 332.293 413.581 332.179 413.592 332.062C413.603 331.946 413.591 331.828 413.556 331.716C413.199 330.477 412.46 329.382 411.446 328.587C410.431 327.791 409.192 327.336 407.904 327.284Z" fill="black"/>
<path d="M369.623 522.994C373.836 522.994 381.378 517.324 381.757 517.07C382.853 516.24 392.387 508.875 390.378 505.261C390.141 504.891 389.829 504.576 389.461 504.336C389.093 504.096 388.679 503.937 388.245 503.869C385.371 503.182 379.778 504.26 375.388 507.246C370.648 510.493 367.289 516.187 366.945 519.6C366.852 520.075 366.866 520.565 366.986 521.034C367.106 521.504 367.329 521.941 367.638 522.313C367.906 522.555 368.22 522.74 368.561 522.857C368.902 522.974 369.263 523.021 369.623 522.994Z" fill="#FC0350"/>
<path d="M408.17 336.805C406.091 336.805 404.521 339.477 404.521 343.026C404.521 346.575 406.091 349.248 408.17 349.248C410.25 349.248 411.82 346.575 411.82 343.026C411.82 339.477 410.244 336.805 408.17 336.805Z" fill="black"/>
<path d="M403.253 369.813C403.144 369.771 403.028 369.751 402.911 369.753C402.794 369.756 402.679 369.782 402.572 369.829C402.466 369.877 402.369 369.945 402.289 370.029C402.208 370.114 402.145 370.213 402.103 370.322C401.828 371.023 401.412 371.659 400.881 372.192C400.35 372.725 399.716 373.143 399.016 373.421C398.095 373.734 397.106 373.79 396.155 373.581C395.205 373.372 394.33 372.907 393.625 372.236C393.448 372.094 393.223 372.025 392.996 372.044C392.77 372.062 392.559 372.167 392.407 372.336C392.255 372.505 392.174 372.726 392.18 372.953C392.186 373.18 392.279 373.397 392.44 373.557C393.77 374.776 395.506 375.456 397.31 375.465C398.098 375.467 398.88 375.331 399.621 375.062C400.565 374.702 401.423 374.146 402.137 373.431C402.852 372.717 403.408 371.859 403.768 370.915C403.84 370.7 403.827 370.466 403.731 370.261C403.635 370.056 403.464 369.895 403.253 369.813Z" fill="black"/>
<path d="M538.962 316.554C536.882 307.009 532.557 287.19 519.469 273.397L516.566 18.6278C516.556 18.4036 516.46 18.1917 516.299 18.0353C516.126 17.8722 515.897 17.7811 515.659 17.7805L458.526 18.7819C458.293 18.7865 458.072 18.8822 457.909 19.0484C457.746 19.2145 457.655 19.4379 457.655 19.6706V49.2949C457.655 49.5307 457.749 49.7567 457.915 49.9234C458.082 50.09 458.308 50.1837 458.544 50.1837H464.344C460.327 52.3877 457.169 56.0138 455.457 57.9808C451.588 62.4363 444.833 73.6758 443.086 98.8624C442.184 112.186 442.909 125.57 445.242 138.719C445.277 138.916 445.377 139.095 445.527 139.227C445.676 139.36 445.866 139.437 446.066 139.448L487.22 141.622H487.267C487.469 141.62 487.665 141.55 487.822 141.423C487.979 141.296 488.088 141.12 488.132 140.923L493.785 115.701C497.067 95.4734 494.863 77.7817 487.238 63.1532C484.566 58.0223 480.128 49.4845 472.514 48.4299C472.436 48.4042 472.354 48.3902 472.272 48.3884H472.212C471.381 48.2966 470.543 48.2966 469.712 48.3884H459.421V30.8271L503.359 29.731L506.754 263.858C498.922 259.812 484.761 254.876 469.617 261.097C455.86 266.756 449.259 278.546 446.842 284.027C438.48 282.351 429.89 282.135 421.454 283.387C411.974 284.815 403.756 286.047 400.237 292.475C397.831 296.866 398.637 301.955 400.361 306.695C396.806 309.296 394.437 312.336 393.317 315.731C392.434 318.42 392.375 321.934 392.256 328.943C392.256 330.626 392.256 331.734 392.256 332.498C392.256 333.955 392.256 334.033 392.078 334.477C390.603 338.287 385.561 341.29 381.23 342.576C380.596 342.766 380.045 342.902 379.547 343.021C378.137 343.352 377.029 343.613 376.389 344.798C375.649 346.137 376.277 347.286 378.623 351.57C378.943 352.163 379.298 352.802 379.684 353.519C380.655 355.297 381.36 356.606 381.461 356.772C382.646 359.326 382 361.405 381.183 364.036C380.443 366.137 379.997 368.33 379.855 370.553C379.47 380.72 386.373 388.399 386.45 388.47C390.135 392.31 394.36 393.767 397.15 394.727C402.257 396.461 407.702 396.964 413.041 396.196C414.826 396.939 416.404 398.104 417.638 399.591C419.601 402.074 420.544 405.212 420.275 408.366C411.429 412.981 405.166 420.98 404.912 421.33C402.454 424.541 400.425 428.058 398.874 431.793C391.213 433.863 383.855 436.927 376.988 440.905C366.536 446.966 358.958 451.375 356.12 460.149L335.164 474.369L293.062 485.099C291.877 437.747 289.655 401.096 288.601 396.528C287.653 392.434 286.456 388.618 286.444 388.577C285.798 386.503 285.318 385.188 285.294 385.129C284.246 382.231 283.434 380.442 283.393 380.353C282.011 377.433 280.485 374.583 278.819 371.815C277.314 369.315 275.667 366.868 273.931 364.516C277.461 360.88 280.287 356.621 282.267 351.955C282.326 351.818 282.349 351.669 282.334 351.521C282.32 351.373 282.268 351.231 282.184 351.108L248.477 301.404C248.443 301.353 248.403 301.305 248.359 301.262C246.56 299.527 244.604 297.962 242.517 296.587C235.798 292.179 230.282 291.486 223.895 290.662C219.404 290.07 214.309 289.477 208.034 287.333C206.363 286.77 204.722 286.207 203.122 285.608C197.594 283.529 192.683 280.934 189.673 275.738C186.337 269.967 186.74 263.42 187.747 258.763C191.907 257.549 195.75 255.438 199.005 252.577C205.558 246.777 207.299 239.868 210.143 228.428C214.119 212.496 212.928 199.336 212.14 190.621C210.955 177.302 210.262 169.967 205.095 161.589C201.075 155.171 195.541 149.836 188.98 146.054C191.963 143.045 194.184 139.366 195.456 135.324C199.011 123.581 192.315 112.958 190.188 109.983C190.103 109.864 189.988 109.768 189.856 109.703C189.723 109.639 189.577 109.609 189.43 109.616L128.872 111.897C128.722 111.903 128.576 111.947 128.447 112.025C128.319 112.102 128.212 112.211 128.137 112.342C126.561 115.043 121.691 124.695 125.204 135.348C127.912 143.554 134.186 148.027 138.755 150.818C134.683 152.198 130.933 154.391 127.734 157.264C117.07 166.927 116.75 181.106 116.59 188.755C116.443 199.541 119.162 210.173 124.47 219.564C124.594 220.956 125.465 227.343 131.236 230.608L132.859 232.059C130.103 232.431 127.486 233.496 125.253 235.154C123.021 236.812 121.244 239.009 120.091 241.539C116.341 250.036 121.916 257.596 123.054 259.03C124.665 261.026 129.156 265.642 136.159 265.642H136.325C140.663 265.529 144.787 263.734 147.826 260.635C147.453 263.301 146.763 265.913 145.77 268.415C144.214 272.324 141.948 275.911 139.086 278.996C134.394 284.158 129.078 288.715 123.261 292.564C122.343 293.157 121.347 293.785 120.299 294.46C114.224 298.104 108.482 302.275 103.14 306.926C102.927 307.116 102.376 307.602 101.926 308.016C93.5952 315.618 89.3293 325.601 84.8145 336.165C84.382 337.179 83.9495 338.198 83.5051 339.223C80.6493 345.847 73.581 361.814 69.0188 372.011L68.9714 372.123C66.56 377.509 64.4804 382.16 64.4567 388.713C64.4567 391.788 64.4152 401.155 71.5665 408.117C74.3561 410.797 77.7686 412.742 81.4966 413.775C81.1421 426.686 82.1789 439.598 84.5894 452.287C85.247 455.729 86.0173 459.207 86.8823 462.62C86.9227 462.78 87.0068 462.926 87.1252 463.041C93.0584 468.772 99.633 473.8 106.719 478.025C107.732 478.617 108.757 479.21 109.823 479.802L113.71 600.871C113.716 601.102 113.813 601.321 113.979 601.482C114.145 601.643 114.368 601.732 114.599 601.73H114.628C114.858 601.722 115.076 601.625 115.236 601.459C115.395 601.293 115.483 601.071 115.482 600.841L111.631 480.762C118.58 484.27 127.912 487.635 147.5 492.997C160.446 496.552 173.723 499.816 186.965 502.725H187.155C187.218 502.732 187.281 502.732 187.344 502.725C187.497 505.582 187.884 508.422 188.5 511.216C186.327 514.621 184.629 518.307 183.452 522.171C183.452 522.171 183.452 522.206 183.452 522.224V522.313C183.449 522.341 183.449 522.368 183.452 522.396C183.449 522.426 183.449 522.455 183.452 522.485C183.452 522.515 183.452 522.544 183.452 522.568V522.657C183.46 522.685 183.47 522.713 183.481 522.74C183.49 522.766 183.5 522.792 183.511 522.817C183.525 522.846 183.54 522.873 183.558 522.9C183.562 522.915 183.562 522.931 183.558 522.947L183.594 522.989C185.158 525.204 186.71 526.271 188.334 526.176C189.714 526.117 190.455 525.27 191.575 523.984C192.167 523.285 192.943 522.42 194.051 521.365C194.916 520.536 196.504 519.309 199.692 516.856C200.526 516.207 201.318 515.504 202.062 514.753C202.921 513.906 203.247 513.615 203.733 513.609C204.586 513.58 205.374 514.243 205.996 514.937C204.779 516.348 203.385 517.597 201.849 518.652C201.44 518.924 201.055 519.167 200.699 519.386C199.348 520.228 198.187 520.95 197.914 522.402C197.82 523.121 197.92 523.852 198.204 524.519C198.489 525.186 198.947 525.765 199.532 526.194C200.273 526.731 201.171 527.008 202.086 526.982C203.495 526.904 204.874 526.539 206.138 525.909C207.884 525.15 209.374 523.906 210.434 522.325C211.322 521.054 212.446 519.966 213.746 519.12C214.822 518.402 216.031 517.905 217.301 517.656C218.898 517.351 220.399 516.664 221.673 515.654C222.643 514.933 223.511 514.086 224.256 513.135C224.862 512.34 225.602 511.656 226.443 511.115C226.946 510.795 227.876 510.185 234.376 508.958C239.708 507.957 242.197 507.507 245.497 507.578C247.048 507.612 248.596 507.745 250.13 507.975C250.386 512.544 251.424 517.035 253.199 521.253C253.267 521.414 253.381 521.551 253.526 521.648C253.671 521.745 253.842 521.797 254.017 521.798H254.189L279.21 516.904L280.164 537.279L242.943 549.579C238.053 550.426 233.28 551.848 228.724 553.816C223.03 556.298 221.104 557.726 220.547 558.715C216.287 558.893 207.139 560.197 200.059 567.538C191.942 575.957 189.744 589.021 194.419 600.907L194.543 601.244C194.61 601.408 194.724 601.547 194.871 601.645C195.018 601.743 195.19 601.796 195.367 601.795C195.483 601.797 195.597 601.775 195.704 601.73C195.869 601.664 196.009 601.551 196.107 601.404C196.206 601.257 196.257 601.083 196.255 600.907C196.256 600.793 196.234 600.68 196.19 600.575C191.61 589.252 193.631 576.769 201.339 568.77C208.099 561.761 216.904 560.617 220.826 560.475C221.466 561.068 222.757 561.257 224.63 561.257C225.074 561.257 225.554 561.257 226.064 561.228C227.117 561.19 228.167 561.075 229.204 560.884L228.86 561.127C224.647 564.131 221.869 566.116 221.649 569.357C221.602 571.129 222.184 572.86 223.291 574.245C223.121 574.342 222.989 574.494 222.915 574.675C222.841 574.856 222.829 575.056 222.881 575.245C222.934 575.433 223.047 575.599 223.204 575.716C223.36 575.833 223.551 575.895 223.747 575.892C223.817 575.903 223.89 575.903 223.96 575.892C230.347 574.304 235.342 572.503 238.843 570.559L246.321 583.736L249.313 600.948V601.102C249.348 601.308 249.454 601.494 249.614 601.629C249.773 601.763 249.975 601.837 250.184 601.837C250.235 601.843 250.287 601.843 250.338 601.837C250.544 601.8 250.73 601.693 250.865 601.532C250.999 601.372 251.073 601.169 251.072 600.96C251.078 600.911 251.078 600.861 251.072 600.812L248.205 584.21L411.038 578.819C411.515 586.243 412.577 593.619 414.214 600.877C414.214 600.942 414.214 601.007 414.255 601.072C414.299 601.269 414.408 601.446 414.565 601.572C414.723 601.698 414.919 601.766 415.12 601.766H519.931C520.028 601.765 520.124 601.749 520.216 601.718H520.251C520.335 601.684 520.412 601.639 520.482 601.582H520.518C520.584 601.525 520.64 601.457 520.684 601.381C520.687 601.367 520.687 601.353 520.684 601.339C520.731 601.259 520.763 601.17 520.779 601.078V600.93C524.523 578.99 555.261 391.492 538.962 316.554ZM492.007 115.363L486.545 139.786L446.848 137.718C444.68 125.202 443.988 112.475 444.786 99.7986L493.417 99.3009C493.349 104.683 492.877 110.052 492.007 115.363ZM469.783 50.1896H472.094C478.872 51.0309 483.096 59.1421 485.626 63.9946C490.739 73.818 493.329 85.0634 493.447 97.559L444.916 98.0567C446.729 74.0431 453.111 63.3843 456.766 59.1539C459.059 56.5411 463.989 50.8591 469.801 50.1659L469.783 50.1896ZM470.287 262.744C485.383 256.541 499.52 261.956 506.843 265.914C509.065 281.319 510.582 296.913 511.34 312.241C512.821 342.227 514.67 379.547 501.102 419.321C497.387 430.217 493.02 439.898 488.115 448.098C480.857 460.226 474.043 467.313 465.417 476.283C463.378 478.398 461.269 480.59 459.018 482.99C438.571 504.775 426.229 517.946 418.871 533.493C418.476 534.335 418.095 535.184 417.727 536.041L393.856 535.348C401.931 529.738 409.408 523.313 416.169 516.175C416.186 516.161 416.202 516.145 416.216 516.128C435.887 490.651 450.533 471.993 458.07 463.615L458.129 463.556C459.456 462.075 462.999 458.153 463.627 452.453C464.386 445.61 460.629 440.2 458.141 436.616C456.097 433.621 453.669 430.908 450.918 428.546C453.108 426.866 455.035 424.869 456.636 422.621C458.413 420.305 460.137 418.118 463.301 416.169C463.428 416.091 463.533 415.983 463.607 415.855C463.682 415.726 463.722 415.581 463.726 415.432C463.729 415.284 463.696 415.137 463.628 415.004C463.56 414.872 463.46 414.759 463.337 414.676C460.331 412.619 457.19 410.768 453.934 409.136L450.379 396.167C456.897 398.643 460.451 399.887 464.285 399.923H464.522C471.561 399.923 484.495 396.996 489.477 385.94C489.596 385.674 489.714 385.407 489.821 385.135C490.724 385.259 491.635 385.323 492.546 385.324C494.801 385.34 497.039 384.938 499.147 384.139C506.636 381.23 511.897 373.208 511.393 365.476C511.222 362.851 509.486 359.818 506.34 354.313C504.651 351.413 502.665 348.697 500.415 346.208C498.205 343.637 496.457 341.604 495.331 337.854C495.096 337.124 494.939 336.372 494.863 335.608C494.69 334.16 494.427 332.723 494.075 331.307C492.998 326.745 491.539 322.282 489.714 317.964L488.115 314.036C483.967 304.005 481.923 298.969 479.915 296.593C476.176 292.173 467.194 284.785 448.732 284.151C451.238 278.7 457.578 267.952 470.305 262.721L470.287 262.744ZM349.271 532.711C345.616 524.884 338.606 521.75 334.909 520.607C343.531 516.021 351.599 510.465 358.958 504.047C360.451 502.731 361.85 501.434 363.207 500.178C369.392 494.454 374.274 489.934 381.242 489.791C384.813 489.786 388.315 490.781 391.35 492.665L414.255 515.577C407.132 523.015 399.219 529.654 390.656 535.377C373.984 546.493 353.377 555.522 349.182 550.782C348.157 549.597 348.59 547.855 349.366 545.059C350.278 541.652 351.469 537.404 349.271 532.711ZM418.983 398.454C417.51 396.669 415.605 395.29 413.449 394.448C413.305 394.39 413.147 394.371 412.993 394.395C407.858 395.166 402.613 394.699 397.695 393.032C394.911 392.073 391.095 390.757 387.706 387.226C387.641 387.161 381.242 380.057 381.603 370.636C381.734 368.558 382.155 366.508 382.853 364.546C383.707 361.785 384.518 359.184 383.043 356.008C382.948 355.8 382.504 354.983 381.266 352.654C380.875 351.932 380.519 351.286 380.199 350.699C378.475 347.559 377.693 346.125 377.959 345.639C378.226 345.154 378.653 345.047 379.98 344.745C380.495 344.626 381.076 344.484 381.757 344.283C386.159 342.973 391.948 339.791 393.761 335.117C394.063 334.347 394.063 333.991 394.057 332.492C394.057 331.734 394.057 330.638 394.057 328.937C394.17 322.112 394.229 318.687 395.029 316.252C395.989 313.337 398.021 310.694 401.061 308.378C402.08 310.837 403.282 313.118 404.313 315.12C406.825 319.919 412.697 331.165 424.387 334.856C427.047 335.623 429.782 336.104 432.545 336.29C436.142 336.639 438.743 336.882 439.868 338.998C440.271 339.744 440.283 340.265 440.265 342.606C440.265 343.524 440.265 344.691 440.265 346.208C440.313 349.556 440.485 352.909 440.775 356.174C440.793 356.376 440.88 356.566 441.022 356.713C441.163 356.859 441.349 356.953 441.551 356.98C442.554 357.11 443.57 357.11 444.573 356.98C445.759 356.819 446.913 356.473 447.991 355.955C448.649 355.568 449.411 355.394 450.172 355.457C450.724 355.579 451.247 355.81 451.709 356.136C452.171 356.463 452.563 356.879 452.862 357.359C453.899 358.887 453.638 360.552 453.484 361.548C453.187 363.307 452.301 364.914 450.972 366.104C449.565 367.341 447.782 368.065 445.912 368.16C444.655 368.254 443.392 368.097 442.197 367.698C442.173 367.695 442.149 367.695 442.126 367.698H442.031H441.859H441.747H441.693L441.587 367.739H441.533L441.439 367.798H441.385L441.296 367.875L441.255 367.917L441.178 368.018V368.053C439.301 371.198 437.594 374.442 436.065 377.77C433.653 383.031 433.582 384.329 433.695 385.135C434.447 389.969 440.834 392.475 448.305 395.319L451.825 408.07C441.024 403.253 431.503 403.099 422.082 407.418C422.122 404.161 421.026 400.991 418.983 398.454ZM406.304 422.414C406.565 422.076 412.786 414.119 421.489 409.717C433.63 403.59 445.924 405.332 461.186 415.393C458.455 417.324 456.796 419.451 455.19 421.519C453.585 423.587 452.026 425.584 449.431 427.379C445.773 424.572 441.514 422.649 436.989 421.762C430.472 420.512 425.554 421.804 419.836 423.303C411.915 425.376 406.66 426.757 401.623 429.956C402.932 427.294 404.5 424.768 406.304 422.414ZM357.72 460.979C360.268 452.684 367.277 448.596 377.865 442.446C384.722 438.47 392.078 435.426 399.739 433.393H399.769L399.887 433.351L399.959 433.304H400L400.041 433.274C405.682 428.878 410.872 427.521 420.287 425.056C425.791 423.617 430.549 422.366 436.651 423.545C440.823 424.34 444.759 426.072 448.163 428.611C448.145 428.762 448.166 428.915 448.223 429.055C448.281 429.196 448.374 429.319 448.493 429.413C448.611 429.508 448.752 429.57 448.902 429.595C449.052 429.619 449.206 429.605 449.348 429.553C452.151 431.887 454.616 434.599 456.671 437.611C459.006 440.976 462.537 446.06 461.85 452.24C461.257 457.371 458.135 460.86 456.796 462.347L456.737 462.413C449.242 470.737 434.815 489.14 415.416 514.226L389.282 488.091C394.253 482.125 399.016 475.88 403.448 469.511C406.026 465.802 408.538 461.974 410.925 458.141C411.047 457.941 411.084 457.701 411.029 457.473C410.974 457.246 410.832 457.049 410.633 456.926C410.434 456.802 410.195 456.763 409.966 456.815C409.738 456.867 409.54 457.007 409.415 457.205C407.045 461.008 404.55 464.812 401.985 468.492C397.435 475.044 392.505 481.461 387.398 487.57C387.26 487.74 387.19 487.954 387.2 488.172C387.21 488.391 387.299 488.598 387.451 488.755L387.747 489.051C385.651 488.328 383.447 487.971 381.23 487.996C373.587 488.15 368.231 493.109 362.022 498.857C360.677 500.107 359.284 501.398 357.809 502.696C349.994 509.51 341.374 515.341 332.142 520.062L309.456 527.568L329.186 507.11L329.411 507.068C329.622 507.027 329.81 506.91 329.941 506.74C330.072 506.57 330.136 506.358 330.122 506.144L342.446 493.37L342.588 493.329C342.731 493.272 342.856 493.179 342.953 493.06C343.049 492.941 343.113 492.799 343.139 492.647L357.068 478.202C357.813 480.248 358.756 482.217 359.883 484.08C361.585 486.755 363.705 489.139 366.163 491.142C366.329 491.28 366.54 491.352 366.755 491.344C366.939 491.346 367.118 491.29 367.269 491.185C367.419 491.081 367.533 490.932 367.595 490.759C367.657 490.586 367.664 490.399 367.614 490.222C367.565 490.046 367.461 489.889 367.318 489.774C365.004 487.885 363.004 485.641 361.393 483.126C360.08 480.971 359.023 478.671 358.241 476.271C358.241 476.271 358.241 476.235 358.241 476.224C356.885 472.064 355.984 466.578 357.696 460.973L357.72 460.979ZM305.83 528.765L282.486 536.468L281.55 516.406L326.146 507.69L305.83 528.765ZM355.427 462.75C354.629 467.284 354.971 471.944 356.423 476.312L342.529 490.716L336.604 475.524L355.427 462.75ZM277.278 372.734C278.915 375.444 280.412 378.237 281.763 381.1C281.763 381.1 282.581 382.877 283.606 385.739C283.606 385.739 284.098 387.078 284.732 389.11C284.732 389.146 285.917 392.908 286.847 396.931C287.741 400.788 290.034 434.572 291.273 485.549L276.342 489.347C270.624 466.667 265.896 444.496 262.288 423.433C260.617 413.686 259.367 406.162 254.42 375.696C260.577 374.172 266.297 371.24 271.128 367.129C271.638 366.69 272.129 366.24 272.615 365.784C274.28 368.029 275.844 370.358 277.278 372.734ZM264.344 480.655C259.936 476.332 255.103 472.465 249.917 469.114C249.809 469.044 249.688 468.999 249.561 468.981C249.435 468.962 249.305 468.971 249.182 469.007C245.716 470.044 242.238 471.205 238.843 472.455C231.909 475.012 225.145 478.009 218.592 481.426L197.855 470.222C197.665 470.118 197.443 470.088 197.233 470.137C197.022 470.186 196.836 470.311 196.712 470.488C195.855 471.673 195.055 472.9 194.312 474.168H194.277C185.845 471.442 177.408 468.373 169.203 465.049C153.658 458.745 138.559 451.395 124.008 443.05L121.904 418.598C123.581 419.054 125.264 419.493 126.958 419.89C127.025 419.898 127.093 419.898 127.16 419.89C127.322 419.89 127.482 419.846 127.621 419.761C127.76 419.676 127.873 419.555 127.948 419.41C135.923 404.001 139.965 386.859 139.714 369.511C175.225 354.942 214.83 353.83 251.102 366.382C251.487 368.752 251.955 371.614 252.53 375.151C257.59 406.31 258.846 413.882 260.528 423.735C264.137 444.798 268.865 466.987 274.576 489.643L272.485 489.857C269.982 486.609 267.263 483.535 264.344 480.655ZM270.417 490.058C262.069 490.882 254.722 491.563 248.217 492.161C213.39 495.385 202.879 496.356 193.992 504.633C192.498 506.027 191.132 507.552 189.91 509.19C188.504 501.709 188.837 494.006 190.882 486.675C192.348 481.495 194.66 476.592 197.725 472.165L218.166 483.215C218.294 483.283 218.438 483.319 218.583 483.319C218.729 483.319 218.872 483.283 219.001 483.215C225.62 479.747 232.456 476.709 239.466 474.12C242.695 472.935 245.983 471.827 249.307 470.832C257.335 476.059 264.465 482.552 270.417 490.058ZM126.875 134.785C123.759 125.305 127.74 116.667 129.417 113.651L188.997 111.405C191.243 114.664 196.901 124.304 193.737 134.815C192.09 140.295 188.713 143.767 186.9 145.633C180.086 152.648 171.744 155.084 165.932 155.895C159.729 156.316 150.433 155.682 141.338 150.302C136.711 147.547 129.725 143.429 126.875 134.785ZM132.172 229.127C126.97 226.247 126.289 220.21 126.218 219.362C126.366 218.492 127.314 213.929 131.55 211.85C135.283 210.013 139.928 210.872 143.109 213.971C143.185 214.042 143.273 214.099 143.37 214.137H143.406C143.502 214.173 143.604 214.193 143.708 214.196H143.773C143.86 214.187 143.945 214.17 144.028 214.143L144.134 214.083C144.182 214.054 144.235 214.03 144.282 213.995C150.703 208.508 156.498 202.329 161.559 195.568C169.078 185.496 172.402 177.563 171.436 172.029C171.252 171.005 170.977 169.999 170.613 169.025C173.202 171.187 175.874 173.261 178.617 175.193C188.374 182.06 199.067 187.492 210.369 191.32C211.186 200.379 212.193 212.65 208.36 227.977C205.587 239.086 203.91 245.793 197.772 251.226C194.63 253.994 190.906 256.02 186.876 257.157C186.769 257.164 186.664 257.192 186.568 257.24C181.123 258.649 175.441 258.891 169.896 257.951C168.337 257.69 156.861 255.522 148.821 246.889C148.775 246.825 148.722 246.768 148.661 246.718C146.74 244.622 145.143 242.252 143.921 239.685C142.614 236.94 141.744 234.007 141.344 230.993C141.325 230.874 141.283 230.76 141.218 230.658C141.154 230.556 141.07 230.469 140.97 230.401C140.871 230.33 140.758 230.28 140.639 230.256C140.52 230.231 140.396 230.232 140.277 230.258C137.527 230.872 134.649 230.47 132.172 229.127ZM147.423 269.084C149.797 263.036 150.515 256.465 149.502 250.047C157.744 257.501 168.112 259.462 169.617 259.711C171.985 260.104 174.38 260.302 176.78 260.303C179.816 260.313 182.842 259.971 185.798 259.284C184.874 264.178 184.696 270.749 188.109 276.644C191.231 282.042 196.267 284.862 201.689 286.989L186.811 329.915L140.935 279.618C143.693 276.51 145.888 272.946 147.423 269.084ZM70.5889 372.87L70.6422 372.757C75.2044 362.561 82.2787 346.581 85.1404 339.951C85.5848 338.926 86.0173 337.901 86.4498 336.888C90.8875 326.502 95.0764 316.696 103.122 309.349C103.567 308.947 104.106 308.473 104.337 308.271C109.59 303.684 115.239 299.57 121.217 295.977C122.301 295.296 123.308 294.668 124.233 294.063C129.904 290.314 135.108 285.9 139.732 280.916L186.503 332.196C186.586 332.287 186.688 332.36 186.801 332.41C186.915 332.46 187.037 332.486 187.161 332.486H187.339C187.492 332.455 187.634 332.384 187.75 332.28C187.867 332.175 187.954 332.042 188.002 331.894L203.348 287.605C204.71 288.103 206.079 288.565 207.448 289.027C213.894 291.207 219.078 291.859 223.658 292.434C229.82 293.216 235.146 293.886 241.521 298.068C243.492 299.362 245.339 300.836 247.038 302.471L280.424 351.7C278.042 357.171 274.435 362.021 269.881 365.877C265.327 369.732 259.948 372.489 254.159 373.936C252.708 364.996 251.961 360.517 251.493 357.696C250.96 354.503 250.782 353.425 250.308 350.326C248.223 336.385 246.492 322.366 245.171 308.668C245.16 308.551 245.126 308.438 245.071 308.335C245.016 308.231 244.941 308.139 244.85 308.065C244.76 307.99 244.655 307.934 244.543 307.9C244.431 307.866 244.313 307.854 244.197 307.865C244.08 307.877 243.967 307.911 243.863 307.966C243.759 308.021 243.668 308.096 243.593 308.186C243.519 308.277 243.463 308.381 243.429 308.493C243.394 308.605 243.382 308.723 243.394 308.84C244.715 322.568 246.445 336.616 248.542 350.593C249.005 353.703 249.188 354.781 249.727 357.993C249.976 359.509 250.32 361.512 250.794 364.421C214.576 352.115 175.14 353.25 139.691 367.621C139.649 365.251 139.554 363.141 139.477 361.275C138.601 341.083 133.553 320.986 124.541 301.523C124.495 301.412 124.427 301.312 124.341 301.229C124.256 301.145 124.154 301.079 124.043 301.036C123.931 300.993 123.812 300.972 123.693 300.976C123.573 300.98 123.455 301.007 123.347 301.058C123.238 301.108 123.141 301.18 123.061 301.269C122.98 301.357 122.919 301.461 122.88 301.575C122.841 301.688 122.825 301.808 122.834 301.927C122.842 302.046 122.875 302.163 122.929 302.269C131.864 321.519 136.835 341.373 137.7 361.352C137.795 363.515 137.901 366.027 137.931 368.841C137.922 368.91 137.922 368.98 137.931 369.048C138.259 386.041 134.393 402.852 126.674 417.994C104.589 412.671 83.9528 402.535 66.2401 388.31C66.3526 382.368 68.2249 378.161 70.5889 372.87ZM81.5618 411.974C78.2805 410.994 75.2804 409.245 72.8107 406.873C67.2651 401.475 66.3882 394.431 66.2578 390.585C71.3458 394.593 76.6786 398.28 82.2254 401.623C81.9094 405.068 81.6882 408.512 81.5618 411.956V411.974ZM187.285 500.972C174.096 498.074 160.872 494.816 147.974 491.285C127.302 485.626 118.172 482.219 111.18 478.522H111.121C109.936 477.877 108.751 477.225 107.631 476.555C100.738 472.446 94.3366 467.562 88.5531 461.998C87.7177 458.698 86.9771 455.338 86.3372 452.014C83.9696 439.544 82.9407 426.856 83.2681 414.166C83.4537 414.15 83.6293 414.075 83.7698 413.953C83.9103 413.83 84.0084 413.667 84.0502 413.485C84.0998 413.255 84.0567 413.015 83.9302 412.816C83.8038 412.618 83.6042 412.477 83.3748 412.424H83.3274C83.438 409.166 83.6355 405.903 83.9199 402.637C88.2016 405.145 92.5919 407.446 97.0909 409.539C104.522 412.986 112.212 415.842 120.091 418.083L122.295 443.655C122.307 443.797 122.353 443.934 122.429 444.055C122.505 444.176 122.61 444.276 122.734 444.348C137.479 452.829 152.787 460.292 168.551 466.684C176.697 469.985 185.069 473.03 193.435 475.744C191.622 479.053 190.189 482.557 189.163 486.189C187.815 490.998 187.182 495.979 187.285 500.972ZM250.053 506.156C248.551 505.948 247.037 505.825 245.521 505.789C241.901 505.723 239.11 506.245 234.038 507.205C227.717 508.39 226.336 509.047 225.465 509.616C224.47 510.248 223.594 511.051 222.876 511.986C222.216 512.829 221.447 513.58 220.589 514.22C219.511 515.081 218.237 515.661 216.88 515.908C215.412 516.204 214.016 516.782 212.768 517.609C211.297 518.563 210.022 519.79 209.012 521.223C208.135 522.573 206.877 523.633 205.398 524.268C204.556 524.648 201.979 525.797 200.581 524.748C200.265 524.514 200.014 524.204 199.851 523.846C199.689 523.489 199.619 523.096 199.65 522.704C199.775 522.058 200.409 521.638 201.623 520.879C202.003 520.648 202.405 520.393 202.808 520.103C204.694 518.816 206.383 517.261 207.821 515.488C207.944 515.332 208.012 515.139 208.012 514.94C208.012 514.741 207.944 514.548 207.821 514.392C206.517 512.673 205.119 511.796 203.673 511.814C202.441 511.814 201.7 512.549 200.764 513.467C200.069 514.176 199.326 514.837 198.542 515.446C195.325 517.923 193.714 519.167 192.778 520.062C191.872 520.929 191.011 521.842 190.2 522.799C189.163 523.984 188.808 524.357 188.209 524.387C187.339 524.387 186.314 523.682 185.247 522.254C187.416 515.523 190.745 510.025 195.148 505.925C203.59 498.063 213.965 497.103 248.329 493.927L251.884 493.601C250.611 497.662 249.993 501.9 250.053 506.156ZM254.55 519.89C252.934 515.84 252.021 511.544 251.849 507.187C251.663 502.519 252.333 497.856 253.827 493.429C259.237 492.926 265.179 492.363 271.738 491.717C271.892 491.831 272.078 491.893 272.269 491.893C272.46 491.893 272.646 491.831 272.799 491.717C272.841 491.685 272.881 491.649 272.917 491.61L275.779 491.326H275.898L291.593 487.327C291.749 487.456 291.946 487.528 292.15 487.528C292.322 487.523 292.489 487.468 292.631 487.371C292.773 487.273 292.883 487.136 292.949 486.977L334.998 476.247L341.19 492.132L328.321 505.475L280.329 514.86L279.144 514.913V515.085L254.55 519.89ZM225.981 559.432C224.758 559.536 223.528 559.482 222.319 559.272C222.805 558.787 224.375 557.619 229.429 555.421C232.946 553.893 236.6 552.702 240.342 551.866C238.156 553.899 235.887 555.824 233.564 557.619C231.179 558.713 228.603 559.329 225.981 559.432ZM238.689 568.515C235.603 570.399 231.034 572.141 225.115 573.711C223.931 572.23 223.338 570.796 223.409 569.457C223.569 567.052 225.939 565.363 229.873 562.561C231.254 561.577 232.836 560.463 234.53 559.136C237.712 556.68 240.743 554.035 243.607 551.215L281.378 538.731L282.563 538.678V538.346L332.522 521.833C334.299 522.195 343.435 524.44 347.654 533.481C349.573 537.587 348.525 541.308 347.606 544.597C347.014 546.801 346.421 548.91 347.014 550.658C311.18 554.71 288.897 556.713 278.937 556.784H278.848C272.907 556.814 266.989 557.525 261.21 558.905C257.268 559.867 253.412 561.151 249.68 562.744C248.886 563.088 246.759 564.036 244.093 565.44C241.427 566.844 239.596 567.97 238.879 568.403L238.689 568.515ZM410.943 577.047L247.66 582.433L240.645 570.074L411.228 562.472C410.806 567.318 410.711 572.188 410.943 577.047ZM242.671 568.213C243.334 567.84 244.075 567.431 244.899 567.028C247.506 565.654 249.591 564.729 250.361 564.392C254.005 562.832 257.77 561.573 261.619 560.629C267.264 559.284 273.045 558.591 278.848 558.561H278.937C289.051 558.49 311.684 556.446 348.128 552.317C349.283 553.365 350.995 553.839 353.111 553.839C362.496 553.839 379.772 544.739 391.356 537.048L416.993 537.789C414.094 545.136 412.222 552.848 411.429 560.706L242.671 568.213ZM519.179 599.982H415.837C410.297 574.588 411.867 552.465 420.494 534.216C427.734 518.906 440.005 505.83 460.333 484.169C462.578 481.799 464.682 479.595 466.714 477.48C475.418 468.438 482.296 461.293 489.637 448.987C495.024 439.767 499.43 430.009 502.785 419.872C516.459 379.778 514.605 342.256 513.118 312.128C512.377 297.203 510.92 282.042 508.793 267.022C529.008 279.31 534.732 305.563 537.202 316.933C553.318 390.911 523.279 575.566 519.179 599.994V599.982Z" fill="black"/>
<path d="M152.423 141.788C152.588 141.93 152.798 142.008 153.016 142.007H153.069L161.02 141.527L161.376 147.488C161.392 147.713 161.493 147.924 161.657 148.079C161.822 148.234 162.039 148.321 162.264 148.323H162.318L169.06 147.914C169.295 147.901 169.515 147.794 169.671 147.619C169.828 147.443 169.909 147.213 169.896 146.978L169.54 141.018L176.449 140.603C176.565 140.596 176.68 140.567 176.785 140.515C176.89 140.464 176.984 140.393 177.062 140.306C177.14 140.218 177.199 140.116 177.237 140.005C177.275 139.895 177.291 139.778 177.284 139.661L176.875 132.818C176.852 132.59 176.744 132.378 176.573 132.225C176.392 132.072 176.158 131.995 175.921 132.012L169.025 132.522L168.663 126.466C168.657 126.35 168.627 126.236 168.576 126.131C168.525 126.026 168.453 125.932 168.365 125.855C168.278 125.778 168.176 125.719 168.065 125.681C167.955 125.644 167.838 125.629 167.721 125.637L160.979 126.04C160.862 126.047 160.748 126.076 160.642 126.127C160.537 126.179 160.443 126.25 160.365 126.337C160.288 126.425 160.228 126.527 160.19 126.637C160.152 126.748 160.136 126.865 160.143 126.982L160.505 132.936L152.548 133.416C152.434 133.424 152.323 133.454 152.222 133.505C152.12 133.556 152.029 133.626 151.955 133.713C151.801 133.889 151.72 134.118 151.73 134.352L152.145 141.196C152.159 141.421 152.258 141.633 152.423 141.788ZM160.611 134.678V134.72C160.625 134.945 160.724 135.157 160.888 135.312C161.052 135.467 161.269 135.554 161.494 135.555H161.554C161.788 135.54 162.008 135.432 162.163 135.256C162.319 135.079 162.398 134.848 162.383 134.613L162.33 133.689L161.974 127.728L166.939 127.432L167.253 132.652C167.048 132.72 166.874 132.861 166.765 133.048C166.656 133.236 166.619 133.456 166.661 133.669C166.703 133.881 166.822 134.071 166.994 134.202C167.166 134.334 167.381 134.398 167.597 134.382L175.151 133.819L175.459 138.879L167.881 139.329C167.646 139.314 167.413 139.392 167.235 139.548C167.058 139.703 166.949 139.923 166.933 140.159C166.918 140.394 166.996 140.627 167.152 140.805C167.307 140.982 167.527 141.091 167.763 141.107L168.065 146.208L163.1 146.504L162.792 141.421C163.001 141.378 163.188 141.262 163.318 141.094C163.449 140.925 163.514 140.715 163.503 140.502C163.488 140.267 163.38 140.047 163.204 139.891C163.027 139.734 162.796 139.654 162.561 139.667L153.845 140.194L153.543 135.123L160.611 134.678Z" fill="black"/>
</g>
<defs>
<clipPath id="clip0">
<rect width="600" height="601.777" fill="white"/>
</clipPath>
</defs>
</svg>
