<svg width="252" height="64" viewBox="0 0 252 64" fill="none" xmlns="http://www.w3.org/2000/svg">
<path d="M39.7902 0.259674H24.2297C10.9914 0.259674 0.259644 10.9914 0.259644 24.2297V39.7903C0.259644 53.0285 10.9914 63.7603 24.2297 63.7603H39.7902C53.0285 63.7603 63.7603 53.0285 63.7603 39.7903V24.2297C63.7603 10.9914 53.0285 0.259674 39.7902 0.259674Z" fill="white" stroke="white" stroke-width="0.25" stroke-miterlimit="10"/>
<path d="M40.0915 36.2759C39.6833 36.2759 39.2009 36.9704 39.2009 37.8786C39.2009 38.7867 39.6833 39.4991 40.0915 39.4991C40.4997 39.4991 40.9821 38.8758 40.9821 37.8786C40.9821 36.8813 40.4626 36.2759 40.0915 36.2759Z" fill="#EDA870" stroke="black" stroke-miterlimit="10"/>
<path d="M21.9641 36.2759C21.593 36.2759 21.0735 36.8991 21.0735 37.8786C21.0735 38.858 21.593 39.4991 21.9641 39.4991C22.3352 39.4991 22.8547 38.8758 22.8547 37.8786C22.8547 36.8813 22.2795 36.2759 21.9641 36.2759Z" fill="#EDA870" stroke="black" stroke-miterlimit="10"/>
<path d="M49.7134 39.5397C49.7134 39.0767 49.7134 38.395 49.7134 37.932C49.7134 34.3704 49.1482 23.9307 44.0459 17.698C43.5078 17.0925 43.6922 16.9662 43.117 16.3607C42.7277 16.0114 41.6976 14.8686 41.2593 14.5777C38.021 11.8306 34.2191 9.6315 30.1129 8.33725C23.4677 12.046 17.7753 14.9124 14.7866 21.7097C13.3933 26.1672 12 28.8417 12 34.1907C12 36.2266 12 36.632 12 37.932C12 46.9427 20.721 54.511 30.8516 54.511C40.2399 54.511 48.5244 48.5159 49.619 40.4312C49.8788 40.1997 49.6949 39.7356 49.7134 39.5397ZM21.9641 41.3333C21.1325 41.2266 20.378 40.8099 19.864 40.1734C19.3501 39.5368 19.1181 38.7316 19.2181 37.932C19.1183 37.1344 19.3509 36.3313 19.8652 35.6976C20.3796 35.0638 21.134 34.6508 21.9641 34.5485C22.7943 34.6508 23.5487 35.0638 24.063 35.6976C24.5774 36.3313 24.81 37.1344 24.7101 37.932C24.7947 38.723 24.5555 39.5145 24.043 40.1393C23.5306 40.764 22.7851 41.173 21.9641 41.2798V41.3333ZM34.4511 42.4017C34.0434 42.9196 33.524 43.3469 32.9284 43.6542C32.3327 43.9616 31.6749 44.1418 31 44.1825H30.7773C29.5619 44.1622 28.4005 43.6972 27.5304 42.8825C27.4451 42.7983 27.3779 42.6989 27.3327 42.5898C27.2875 42.4807 27.2651 42.3641 27.2668 42.2467C27.2685 42.1293 27.2943 42.0133 27.3427 41.9055C27.3912 41.7977 27.4612 41.7 27.5489 41.6182C27.6366 41.5363 27.7403 41.4719 27.854 41.4285C27.9676 41.3851 28.0891 41.3636 28.2114 41.3652C28.3338 41.3669 28.4546 41.3916 28.5669 41.4381C28.6793 41.4846 28.781 41.5518 28.8663 41.636C29.1335 41.8913 29.4526 42.091 29.8037 42.2227C30.1548 42.3545 30.5305 42.4154 30.9072 42.4017C31.3058 42.3764 31.6941 42.2695 32.0461 42.0883C32.3981 41.9071 32.7057 41.6557 32.9482 41.3511C33.0933 41.1598 33.3117 41.0317 33.5553 40.995C33.7989 40.9582 34.0477 41.0159 34.247 41.1552C34.4463 41.2945 34.5797 41.5041 34.618 41.7379C34.6563 41.9716 34.5962 42.2104 34.4511 42.4017ZM40.0173 41.3333C39.1856 41.2266 38.4311 40.8099 37.9172 40.1734C37.4033 39.5368 37.1712 38.7316 37.2713 37.932C37.1715 37.1344 37.4041 36.3313 37.9184 35.6976C38.4327 35.0638 39.1871 34.6508 40.0173 34.5485C40.8475 34.6508 41.6019 35.0638 42.1162 35.6976C42.6305 36.3313 42.8631 37.1344 42.7633 37.932C42.8495 38.7123 42.6204 39.4946 42.1233 40.1175C41.6262 40.7404 40.8989 41.1565 40.0915 41.2798L40.0173 41.3333Z" fill="#FF4848"/>
<path d="M45.3238 16.6696C45.3238 16.6696 45.3238 16.6696 45.231 16.6696C44.6859 16.0386 44.097 15.4437 43.4684 14.8888C40.0614 11.3871 35.8308 8.71882 31.1299 7.10685L30.7403 7L29.4044 7.24931C26.7775 8.71354 24.3314 10.4579 22.1126 12.4492C15.4331 17.4531 13.6519 24.0598 12.8355 33.6581C12.7189 34.8418 12.6693 36.0308 12.6871 37.2197C12.6871 37.3621 12.6871 37.5046 12.6871 37.647C12.6871 47.6194 19.9232 56.2917 31.0742 56.2917C35.8348 56.4139 40.4821 54.8866 44.1653 51.9892C47.8485 49.0918 50.3214 45.0182 51.1312 40.5141C51.1237 40.455 51.1237 40.3951 51.1312 40.336V39.7305C52.3929 30.2569 50.4076 22.4571 45.3238 16.6696ZM31.0928 54.4219C20.9623 54.4219 12.7057 47.1029 12.7057 38.0922C12.7057 36.7923 12.7057 35.5635 12.8727 34.3348C13.1646 31.1666 13.9463 28.0578 15.1919 25.1104C18.1806 18.3131 23.39 12.632 30.0352 8.92323C34.1414 10.2175 37.9294 12.3019 41.1677 15.0491C41.6061 15.3399 42.0216 15.6613 42.4108 16.0107C42.986 16.5449 43.5241 17.1148 44.0621 17.7915C49.2016 24.0242 49.6284 34.5841 49.6284 38.0744C49.6284 38.5374 49.6284 39.0004 49.6284 39.4634C49.6284 39.6593 49.6284 39.8196 49.6284 39.9621C48.2554 48.0646 40.4812 54.4219 31.0928 54.4219Z" fill="#FF4848"/>
<path d="M21.9641 34.4951C21.134 34.5974 20.3795 35.0104 19.8652 35.6441C19.3509 36.2779 19.1183 37.081 19.2181 37.8786C19.118 38.6781 19.3501 39.4833 19.864 40.1199C20.378 40.7565 21.1324 41.1732 21.9641 41.2798C22.7958 41.1732 23.5503 40.7565 24.0642 40.1199C24.5781 39.4833 24.8102 38.6781 24.7101 37.8786C24.8099 37.081 24.5773 36.2779 24.063 35.6441C23.5487 35.0104 22.7943 34.5974 21.9641 34.4951ZM21.9641 39.4991C21.593 39.4991 21.0735 38.8758 21.0735 37.8786C21.0735 36.8813 21.593 36.2759 21.9641 36.2759C22.3352 36.2759 22.8547 36.8991 22.8547 37.8786C22.8547 38.858 22.2795 39.4991 21.9641 39.4991Z" fill="black" stroke="black" stroke-miterlimit="10"/>
<path d="M40.0916 34.4951C39.2614 34.5974 38.507 35.0104 37.9927 35.6441C37.4783 36.2779 37.2457 37.081 37.3455 37.8786C37.2455 38.6781 37.4775 39.4833 37.9915 40.1199C38.5054 40.7565 39.2599 41.1732 40.0916 41.2798C40.9232 41.1732 41.6777 40.7565 42.1917 40.1199C42.7056 39.4833 42.9376 38.6781 42.8376 37.8786C42.9374 37.081 42.7048 36.2779 42.1905 35.6441C41.6761 35.0104 40.9217 34.5974 40.0916 34.4951ZM40.0916 39.4991C39.6834 39.4991 39.201 38.7867 39.201 37.8786C39.201 36.9704 39.6834 36.2759 40.0916 36.2759C40.4997 36.2759 40.9822 36.8991 40.9822 37.8786C40.9822 38.858 40.4626 39.4991 40.0916 39.4991Z" fill="black" stroke="black" stroke-miterlimit="10"/>
<path d="M32.9482 41.2976C32.7057 41.6023 32.3981 41.8536 32.0461 42.0348C31.6941 42.2161 31.3058 42.3229 30.9072 42.3483C30.5305 42.362 30.1548 42.301 29.8037 42.1693C29.4526 42.0376 29.1335 41.8378 28.8663 41.5826C28.694 41.4125 28.4585 41.3151 28.2114 41.3118C27.9644 41.3085 27.7261 41.3995 27.5489 41.5648C27.3718 41.7301 27.2703 41.9561 27.2668 42.1932C27.2633 42.4304 27.3581 42.6591 27.5304 42.8291C28.4005 43.6438 29.5619 44.1088 30.7773 44.1291H31C31.6749 44.0884 32.3327 43.9081 32.9284 43.6008C33.524 43.2934 34.0434 42.8662 34.4511 42.3483C34.5962 42.157 34.6563 41.9182 34.618 41.6845C34.5797 41.4507 34.4463 41.2411 34.247 41.1018C34.0477 40.9624 33.7989 40.9048 33.5553 40.9415C33.3117 40.9783 33.0933 41.1064 32.9482 41.2976Z" fill="black"/>
<path d="M40.8336 35.3855C41.1936 35.4934 41.5238 35.6774 41.7999 35.9239C42.0761 36.1705 42.2911 36.4733 42.4293 36.8101C42.6505 37.3479 42.6505 37.9462 42.4293 38.484" stroke="white" stroke-miterlimit="10" stroke-linecap="round"/>
<path d="M21.9641 34.9047C22.3608 34.9909 22.7328 35.1601 23.0535 35.4002C23.3742 35.6403 23.6358 35.9454 23.8195 36.2937C23.9874 36.6242 24.0838 36.9839 24.1029 37.3512C24.122 37.7184 24.0635 38.0856 23.9308 38.4306" stroke="white" stroke-miterlimit="10" stroke-linecap="round"/>
<path d="M37.1228 15.5477C39.3424 16.7289 41.2496 18.3837 42.6972 20.3845C44.1448 22.3852 45.0942 24.6784 45.4722 27.0871" stroke="white" stroke-miterlimit="10" stroke-linecap="round"/>
<path d="M46.7153 31.4678L47.0122 32.6253" stroke="white" stroke-miterlimit="10" stroke-linecap="round"/>
<g style="mix-blend-mode:darken" opacity="0.07">
<path d="M30.1836 7.4808C31.1299 8.37119 21.5003 15.6367 17.5297 28.4939C16.1567 32.928 14.7466 37.5402 16.5278 42.1524C19.3109 49.2755 28.7549 53.7452 40.3142 54.2082C36.0754 56.2084 31.2208 56.6516 26.6651 55.4543C22.1095 54.2571 18.1673 51.5021 15.5815 47.7084C12.8355 43.5948 12 39.1056 12 34.1907C12 31.5017 12.8355 23.1338 18.5687 16.1353C20.2016 14.2059 22.0704 12.472 24.135 10.9711C25.0627 10.2054 29.5342 6.85753 30.1836 7.4808Z" fill="#53C3EA"/>
<path d="M30.1836 7.4808C31.1299 8.37119 21.5003 15.6367 17.5297 28.4939C16.1567 32.928 14.7466 37.5402 16.5278 42.1524C19.3109 49.2755 28.7549 53.7452 40.3142 54.2082C36.0754 56.2084 31.2208 56.6516 26.6651 55.4543C22.1095 54.2571 18.1673 51.5021 15.5815 47.7084C12.8355 43.5948 12 39.1056 12 34.1907C12 31.5017 12.8355 23.1338 18.5687 16.1353C20.2016 14.2059 22.0704 12.472 24.135 10.9711C25.0627 10.2054 29.5342 6.85753 30.1836 7.4808Z" stroke="#53C3EA" stroke-width="0.25" stroke-miterlimit="10"/>
</g>
<path d="M102.594 16.112C102.85 15.632 103.282 15.296 103.89 15.104C104.498 14.912 105.266 14.816 106.194 14.816C107.122 14.816 107.858 14.896 108.402 15.056C108.946 15.216 109.362 15.408 109.65 15.632C109.938 15.856 110.162 16.176 110.322 16.592C110.482 17.136 110.562 17.968 110.562 19.088V45.728C110.562 46.464 110.53 47.024 110.466 47.408C110.434 47.76 110.29 48.176 110.034 48.656C109.586 49.52 108.338 49.952 106.29 49.952C104.05 49.952 102.738 49.36 102.354 48.176C102.162 47.632 102.066 46.8 102.066 45.68V35.936H89.3457V45.728C89.3457 46.464 89.3137 47.024 89.2497 47.408C89.2177 47.76 89.0737 48.176 88.8177 48.656C88.3697 49.52 87.1217 49.952 85.0737 49.952C82.8337 49.952 81.5217 49.36 81.1377 48.176C80.9457 47.632 80.8497 46.8 80.8497 45.68V19.04C80.8497 18.304 80.8657 17.76 80.8977 17.408C80.9617 17.024 81.1217 16.592 81.3777 16.112C81.8257 15.248 83.0737 14.816 85.1217 14.816C87.3617 14.816 88.6897 15.408 89.1057 16.592C89.2657 17.136 89.3457 17.968 89.3457 19.088V28.88H102.066V19.04C102.066 18.304 102.082 17.76 102.114 17.408C102.178 17.024 102.338 16.592 102.594 16.112Z" fill="white"/>
<path d="M138.796 34.352C138.796 36.304 138.3 37.76 137.308 38.72C136.348 39.648 135.276 40.112 134.092 40.112H122.716C122.716 41.008 123.244 41.76 124.3 42.368C125.356 42.976 126.412 43.28 127.468 43.28C129.324 43.28 130.78 43.088 131.836 42.704L132.364 42.512C133.132 42.16 133.772 41.984 134.284 41.984C135.308 41.984 136.188 42.704 136.924 44.144C137.34 45.008 137.548 45.744 137.548 46.352C137.548 49.2 134.14 50.624 127.324 50.624C124.956 50.624 122.844 50.224 120.988 49.424C119.164 48.592 117.74 47.504 116.716 46.16C114.7 43.568 113.692 40.672 113.692 37.472C113.692 33.44 114.988 30.224 117.58 27.824C120.204 25.392 123.468 24.176 127.372 24.176C131.82 24.176 135.084 25.744 137.164 28.88C138.252 30.544 138.796 32.368 138.796 34.352ZM128.668 35.744C129.884 35.744 130.492 35.232 130.492 34.208C130.492 33.472 130.204 32.88 129.628 32.432C129.084 31.984 128.284 31.76 127.228 31.76C126.204 31.76 125.18 32.192 124.156 33.056C123.132 33.888 122.62 34.784 122.62 35.744H128.668Z" fill="white"/>
<path d="M141.928 17.024C141.928 16.288 141.944 15.744 141.976 15.392C142.04 15.008 142.184 14.576 142.408 14.096C142.856 13.232 144.104 12.8 146.152 12.8C148.104 12.8 149.32 13.232 149.8 14.096C150.056 14.576 150.2 15.008 150.232 15.392C150.296 15.776 150.328 16.336 150.328 17.072V39.296C150.328 40.448 150.424 41.184 150.616 41.504C150.808 41.792 151.224 41.936 151.864 41.936C152.536 41.936 152.984 41.968 153.208 42.032C153.432 42.064 153.704 42.192 154.024 42.416C154.664 42.832 154.984 43.968 154.984 45.824C154.984 47.84 154.664 49.072 154.024 49.52C153.192 50.096 151.208 50.192 148.072 49.808C145.608 49.488 144.008 48.672 143.272 47.36C142.376 45.792 141.928 43.296 141.928 39.872V17.024Z" fill="white"/>
<path d="M157.631 56.864V28.832C157.631 28.096 157.647 27.552 157.679 27.2C157.743 26.848 157.887 26.448 158.111 26C158.559 25.136 159.631 24.704 161.327 24.704C163.023 24.704 164.159 24.928 164.735 25.376C165.343 25.792 165.695 26.416 165.791 27.248C167.007 25.584 168.911 24.752 171.503 24.752C174.127 24.752 176.607 25.984 178.943 28.448C181.279 30.912 182.447 33.776 182.447 37.04C182.447 40.304 181.279 43.168 178.943 45.632C176.639 48.096 174.175 49.328 171.551 49.328C168.927 49.328 167.023 48.592 165.839 47.12V56.816C165.839 57.552 165.807 58.096 165.743 58.448C165.711 58.8 165.567 59.2 165.311 59.648C165.087 60.128 164.687 60.464 164.111 60.656C163.535 60.848 162.751 60.944 161.759 60.944C160.767 60.944 159.967 60.848 159.359 60.656C158.783 60.464 158.367 60.144 158.111 59.696C157.887 59.248 157.743 58.848 157.679 58.496C157.647 58.144 157.631 57.6 157.631 56.864ZM167.135 34.256C166.399 35.12 166.031 36.064 166.031 37.088C166.031 38.112 166.399 39.056 167.135 39.92C167.903 40.752 168.863 41.168 170.015 41.168C171.199 41.168 172.191 40.752 172.991 39.92C173.823 39.088 174.239 38.144 174.239 37.088C174.239 36.032 173.855 35.088 173.087 34.256C172.319 33.392 171.311 32.96 170.063 32.96C168.847 32.96 167.871 33.392 167.135 34.256Z" fill="white"/>
<path d="M185.568 28.928C185.568 28.192 185.584 27.648 185.616 27.296C185.68 26.912 185.824 26.48 186.048 26C186.496 25.168 187.744 24.752 189.792 24.752C191.328 24.752 192.416 25.024 193.056 25.568C193.6 26.016 193.888 26.704 193.92 27.632C193.952 27.952 193.968 28.416 193.968 29.024V45.824C193.968 46.56 193.936 47.12 193.872 47.504C193.84 47.856 193.696 48.272 193.44 48.752C193.024 49.584 191.792 50 189.744 50C187.728 50 186.496 49.568 186.048 48.704C185.824 48.224 185.68 47.808 185.616 47.456C185.584 47.104 185.568 46.544 185.568 45.776V28.928ZM193.44 20.048C193.216 20.496 192.8 20.816 192.192 21.008C191.584 21.2 190.768 21.296 189.744 21.296C188.752 21.296 187.952 21.2 187.344 21.008C186.736 20.816 186.304 20.48 186.048 20C185.824 19.52 185.68 19.104 185.616 18.752C185.584 18.368 185.568 17.808 185.568 17.072C185.568 16.336 185.584 15.792 185.616 15.44C185.68 15.056 185.824 14.64 186.048 14.192C186.496 13.328 187.744 12.896 189.792 12.896C191.808 12.896 193.024 13.328 193.44 14.192C193.696 14.672 193.84 15.104 193.872 15.488C193.936 15.84 193.968 16.384 193.968 17.12C193.968 17.856 193.936 18.416 193.872 18.8C193.84 19.152 193.696 19.568 193.44 20.048Z" fill="white"/>
<path d="M211.867 24.704C215.067 24.704 217.723 25.936 219.835 28.4C221.979 30.832 223.051 33.808 223.051 37.328V45.776C223.051 46.512 223.019 47.072 222.955 47.456C222.923 47.808 222.795 48.208 222.571 48.656C222.123 49.52 220.875 49.952 218.827 49.952C216.555 49.952 215.243 49.36 214.891 48.176C214.699 47.632 214.603 46.816 214.603 45.728V37.28C214.603 35.968 214.219 34.944 213.451 34.208C212.715 33.472 211.707 33.104 210.427 33.104C209.179 33.104 208.155 33.488 207.355 34.256C206.587 35.024 206.203 36.032 206.203 37.28V45.776C206.203 46.512 206.171 47.072 206.107 47.456C206.075 47.808 205.931 48.208 205.675 48.656C205.259 49.52 204.027 49.952 201.979 49.952C199.963 49.952 198.731 49.52 198.283 48.656C198.059 48.176 197.915 47.76 197.851 47.408C197.819 47.024 197.803 46.464 197.803 45.728V28.736C197.803 28.032 197.819 27.504 197.851 27.152C197.915 26.768 198.075 26.352 198.331 25.904C198.779 25.104 200.011 24.704 202.027 24.704C203.979 24.704 205.179 25.072 205.627 25.808C205.947 26.352 206.107 27.008 206.107 27.776C206.235 27.552 206.523 27.232 206.971 26.816C207.419 26.4 207.851 26.064 208.267 25.808C209.355 25.072 210.555 24.704 211.867 24.704Z" fill="white"/>
<path d="M242.944 46.832C241.728 48.432 239.792 49.232 237.136 49.232C234.48 49.232 231.984 48.016 229.648 45.584C227.344 43.12 226.192 40.256 226.192 36.992C226.192 33.728 227.36 30.864 229.696 28.4C232.032 25.936 234.592 24.704 237.376 24.704C238.464 24.704 239.456 24.912 240.352 25.328C241.248 25.712 241.856 26.08 242.176 26.432C242.528 26.752 242.8 27.056 242.992 27.344C243.088 26.448 243.408 25.776 243.952 25.328C244.528 24.848 245.44 24.608 246.688 24.608C247.936 24.608 248.848 24.704 249.424 24.896C250 25.088 250.4 25.424 250.624 25.904C250.88 26.352 251.024 26.752 251.056 27.104C251.12 27.456 251.152 28 251.152 28.736V48.608C251.152 52.288 249.872 55.248 247.312 57.488C244.752 59.76 241.872 60.896 238.672 60.896C236.24 60.896 233.92 60.304 231.712 59.12C229.504 57.936 228.4 56.864 228.4 55.904C228.4 54.656 228.88 53.552 229.84 52.592C230.448 51.92 230.912 51.456 231.232 51.2C231.584 50.944 231.984 50.816 232.432 50.816C232.88 50.816 233.344 51.008 233.824 51.392C235.36 52.576 237.024 53.168 238.816 53.168C240.032 53.168 241.024 52.688 241.792 51.728C242.56 50.768 242.944 49.616 242.944 48.272V46.832ZM234.4 37.04C234.4 38.064 234.8 38.992 235.6 39.824C236.432 40.656 237.424 41.072 238.576 41.072C239.76 41.072 240.736 40.656 241.504 39.824C242.272 38.96 242.656 38.032 242.656 37.04C242.656 36.016 242.288 35.072 241.552 34.208C240.816 33.312 239.824 32.864 238.576 32.864C237.328 32.864 236.32 33.296 235.552 34.16C234.784 35.024 234.4 35.984 234.4 37.04Z" fill="white"/>
</svg>
